<svg width="16" height="16" viewBox="0 0 16 16" fill="none" xmlns="http://www.w3.org/2000/svg">
<path d="M7.28906 0.314949C7.73294 0.0760066 8.26706 0.0760066 8.71094 0.314949L14.2109 3.27589C14.6967 3.53745 14.9999 4.0455 15 4.59718V11.4019C15 11.9536 14.6967 12.4615 14.2109 12.7232L8.71094 15.6841C8.26698 15.9231 7.73302 15.9231 7.28906 15.6841L1.78906 12.7232C1.30329 12.4615 1 11.9536 1 11.4019V4.59718C1.00014 4.0455 1.30331 3.53745 1.78906 3.27589L7.28906 0.314949ZM7.98438 14.8638C7.9948 14.8641 8.0052 14.8641 8.01562 14.8638H7.98438ZM2 8.05421L4.72363 9.41651L5 9.55518V13.3159L7.5 14.6626V8.16261L2 5.20069V8.05421ZM8.5 8.16261V14.6626L11 13.3159V9.55518L11.2764 9.41651L14 8.05421V5.20069L8.5 8.16261ZM2 11.4019C2 11.5856 2.10099 11.755 2.2627 11.8423L4 12.7778V10.1724L2 9.17237V11.4019ZM12 10.1724V12.7778L13.7373 11.8423C13.899 11.755 14 11.5856 14 11.4019V9.17237L12 10.1724ZM8.24805 4.79835L8 4.93995L7.75195 4.79835L4.50977 2.94581L2.2627 4.15675C2.2481 4.16462 2.23428 4.17395 2.2207 4.18311L8 7.29542L13.7783 4.18311C13.765 4.17413 13.7517 4.16449 13.7373 4.15675L11.4893 2.94581L8.24805 4.79835ZM8.2373 1.19483C8.0894 1.11526 7.9106 1.11526 7.7627 1.19483L5.54883 2.38624L8 3.78663L10.4502 2.38624L8.2373 1.19483Z" fill="white"/>
</svg>
