<svg width="16" height="16" viewBox="0 0 16 16" fill="none" xmlns="http://www.w3.org/2000/svg">
<path fill-rule="evenodd" clip-rule="evenodd" d="M5.22266 2.12295C6.54901 1.49616 8.04893 1.33644 9.47754 1.66982C10.906 2.00325 12.1799 2.81083 13.0918 3.95986C13.5601 4.55014 13.9086 5.29076 14.1406 6.00283C14.3723 6.7141 14.5 7.43475 14.5 7.9999C14.5 9.04884 14.3034 9.74816 13.8262 10.2255C13.3949 10.6568 12.8101 10.8993 12.2002 10.8993C11.5902 10.8993 11.0046 10.6568 10.5732 10.2255C10.529 10.1812 10.4889 10.1354 10.4522 10.0888C10.3963 10.1821 10.3372 10.2732 10.2725 10.3603C9.76845 11.0387 8.9999 11.4999 8 11.4999C6.06702 11.4999 4.5 9.93289 4.5 7.9999C4.50009 6.06699 6.06707 4.49992 8 4.4999C8.87507 4.4999 9.57285 4.85345 10.0713 5.39638V4.59951H11.0713V8.59951C11.0713 9.1014 11.1089 9.34607 11.2813 9.51845C11.525 9.76219 11.8555 9.89931 12.2002 9.89931C12.5449 9.89926 12.8754 9.76221 13.1191 9.51845C13.3168 9.3207 13.5 8.95083 13.5 7.9999C13.5 7.56473 13.3982 6.95031 13.1904 6.3124C12.9829 5.67539 12.6818 5.05129 12.3086 4.58096C11.537 3.60864 10.4588 2.92555 9.25 2.64345C8.04129 2.3614 6.77261 2.497 5.65039 3.02724C4.52811 3.5576 3.61789 4.45231 3.06836 5.56533C2.51892 6.67832 2.36175 7.9447 2.62305 9.1581C2.88441 10.3715 3.54892 11.4608 4.50782 12.2489C5.46677 13.037 6.6642 13.4775 7.90528 13.4989C9.14643 13.5203 10.3582 13.1208 11.3438 12.3661L11.6484 12.7636L11.9522 13.1601C10.7875 14.0519 9.35534 14.524 7.88867 14.4989C6.42187 14.4737 5.00642 13.9528 3.87305 13.0214C2.73973 12.0899 1.95438 10.8022 1.64551 9.36806C1.33681 7.9341 1.52253 6.43724 2.17188 5.12197C2.82134 3.8068 3.89649 2.74967 5.22266 2.12295ZM8 5.4999C6.61936 5.49992 5.50009 6.61927 5.5 7.9999C5.5 9.3806 6.6193 10.4999 8 10.4999C8.65681 10.4999 9.13796 10.2109 9.46973 9.76455C9.81176 9.30412 10 8.66402 10 7.9999C9.99997 7.33579 9.81177 6.69565 9.46973 6.23525C9.13796 5.78892 8.65675 5.4999 8 5.4999Z" fill="#26171D"/>
</svg>
