<svg width="64" height="24" viewBox="0 0 64 24" fill="none" xmlns="http://www.w3.org/2000/svg">
<g clip-path="url(#clip0_2346_12765)">
<path d="M36 12C36 5.37258 41.3726 0 48 0V0C54.6274 0 60 5.37258 60 12V12C60 18.6274 54.6274 24 48 24V24C41.3726 24 36 18.6274 36 12V12Z" fill="#b96a96"/>
<path d="M43.0369 15V8.54883H46.157C46.5701 8.54883 46.9173 8.62207 47.1985 8.76855C47.4827 8.91211 47.698 9.10693 47.8445 9.35303C47.991 9.59619 48.0642 9.87012 48.0642 10.1748C48.0642 10.418 48.0144 10.6406 47.9148 10.8428C47.8181 11.0449 47.6746 11.2163 47.4842 11.3569C47.2967 11.4946 47.0623 11.5913 46.781 11.647V11.6909C47.2761 11.7817 47.6482 11.959 47.8972 12.2227C48.1492 12.4863 48.2752 12.8086 48.2752 13.1895C48.2752 13.4707 48.2268 13.7241 48.1301 13.9497C48.0335 14.1724 47.8914 14.3628 47.7039 14.521C47.5193 14.6763 47.2937 14.7949 47.0271 14.877C46.7605 14.959 46.4558 15 46.1131 15H43.0369ZM44.2454 14.0508H45.9021C46.1482 14.0508 46.3562 14.0112 46.5261 13.9321C46.699 13.8501 46.8308 13.7358 46.9217 13.5894C47.0125 13.4429 47.0579 13.2686 47.0579 13.0664C47.0579 12.7793 46.9597 12.5596 46.7634 12.4072C46.5672 12.2549 46.302 12.1787 45.968 12.1787H44.2454V14.0508ZM44.2454 11.2295H45.9592C46.1643 11.2295 46.3357 11.1943 46.4734 11.124C46.6111 11.0508 46.7151 10.9497 46.7854 10.8208C46.8557 10.6919 46.8909 10.5454 46.8909 10.3813C46.8909 10.1411 46.8089 9.93457 46.6448 9.76172C46.4837 9.58594 46.2332 9.49805 45.8933 9.49805H44.2454V11.2295ZM49.4211 15V8.54883H50.6296V14.0244H53.4553V15H49.4211Z" fill="#26171D"/>
</g>
<rect x="36.5" y="0.5" width="23" height="23" rx="11.5" stroke="#F4F1F0" stroke-linecap="round"/>
<g clip-path="url(#clip1_2346_12765)">
<path d="M20 12C20 5.37258 25.3726 0 32 0V0C38.6274 0 44 5.37258 44 12V12C44 18.6274 38.6274 24 32 24V24C25.3726 24 20 18.6274 20 12V12Z" fill="#d597bf"/>
<path d="M26.6897 12.9346L26.4173 12.3677H29.0935L28.8474 12.9346L27.7752 9.78809H27.7356L26.6897 12.9346ZM24.8836 14.8462L27.1072 8.54883H28.4475L30.68 14.8462V15H29.4802L28.865 12.9961L29.4539 13.3433H26.0437L26.6634 12.9961L26.013 15H24.8836V14.8462ZM31.7029 15V8.54883H33.2629L35.1394 13.3169H35.1833L37.0686 8.54883H38.5803V15H37.3718V10.6055H37.3191L35.5832 15H34.6911L32.9641 10.6055H32.9114V15H31.7029Z" fill="#26171D"/>
</g>
<rect x="20.5" y="0.5" width="23" height="23" rx="11.5" stroke="#F4F1F0" stroke-linecap="round"/>
<path d="M16 0.5C22.3513 0.5 27.5 5.64873 27.5 12C27.5 18.3513 22.3513 23.5 16 23.5C9.64873 23.5 4.5 18.3513 4.5 12C4.5 5.64873 9.64873 0.5 16 0.5Z" fill="#26171D"/>
<path d="M16 0.5C22.3513 0.5 27.5 5.64873 27.5 12C27.5 18.3513 22.3513 23.5 16 23.5C9.64873 23.5 4.5 18.3513 4.5 12C4.5 5.64873 9.64873 0.5 16 0.5Z" stroke="#F4F1F0"/>
<path d="M16.5 11.5H22V12.5H16.5V18H15.5V12.5H10V11.5H15.5V6H16.5V11.5Z" fill="white"/>
<defs>
<clipPath id="clip0_2346_12765">
<rect x="36" width="24" height="24" rx="12" fill="white"/>
</clipPath>
<clipPath id="clip1_2346_12765">
<rect x="20" width="24" height="24" rx="12" fill="white"/>
</clipPath>
</defs>
</svg>
