<svg width="16" height="16" viewBox="0 0 16 16" fill="none" xmlns="http://www.w3.org/2000/svg">
<path d="M13.3184 3C13.7566 3.00004 14.182 3.16598 14.499 3.46777C14.8167 3.77037 15 4.18605 15 4.625V11.375C15 11.8139 14.8167 12.2296 14.499 12.5322C14.182 12.834 13.7566 13 13.3184 13H5.41699L5.26855 12.8379L1.13184 8.33789L0.821289 8L1.13184 7.66211L5.26855 3.16211L5.41699 3H13.3184ZM2.17871 8L5.85547 12H13.3184C13.5069 12 13.6834 11.9287 13.8096 11.8086C13.9348 11.6893 14 11.5325 14 11.375V4.625C14 4.46746 13.9348 4.31072 13.8096 4.19141C13.6834 4.07132 13.5069 4.00005 13.3184 4H5.85547L2.17871 8ZM12.3535 6.35352L10.707 8L12.3535 9.64648L11.6465 10.3535L10 8.70703L8.35352 10.3535L7.64648 9.64648L9.29297 8L7.64648 6.35352L8.35352 5.64648L10 7.29297L11.6465 5.64648L12.3535 6.35352Z" fill="#26171D"/>
</svg>
