<svg width="20" height="20" viewBox="0 0 20 20" fill="none" xmlns="http://www.w3.org/2000/svg">
<path d="M15.3223 16.1924C13.7802 17.8201 11.5121 18.75 8.73926 18.75H4.09082C3.12612 18.7499 2.5 18.1291 2.5 17.1729V16.1924H15.3223ZM8.93457 11.2178C9.71822 11.2179 10.2266 11.72 10.2266 12.4941C10.2264 13.2677 9.71811 13.7694 8.93457 13.7695H2.5V11.2178H8.93457ZM17.5 11.2178C17.4014 12.1389 17.1889 12.9929 16.873 13.7695H14.0879C13.3041 13.7694 12.796 13.2676 12.7959 12.4941C12.7959 11.7201 13.304 11.2179 14.0879 11.2178H17.5ZM5.07422 6.23633C5.85772 6.23653 6.36621 6.73903 6.36621 7.5127C6.36621 8.28671 5.85772 8.78886 5.07422 8.78906H2.5V6.23633H5.07422ZM16.873 6.23633C17.1889 7.01323 17.4014 7.86792 17.5 8.78906H10.2275C9.44353 8.78898 8.93457 8.2868 8.93457 7.5127C8.93457 6.73893 9.44353 6.23641 10.2275 6.23633H16.873ZM8.73926 1.25C11.5123 1.25002 13.7802 2.18029 15.3223 3.80859H2.5V2.82715C2.5 1.87052 3.12612 1.25008 4.09082 1.25H8.73926Z" fill="#90436A"/>
</svg>
