<svg width="50" height="11" viewBox="0 0 50 11" fill="none" xmlns="http://www.w3.org/2000/svg">
<path d="M3.82129 10.7666C3.06022 10.7666 2.39941 10.6458 1.83887 10.4043C1.27832 10.1628 0.838542 9.81868 0.519531 9.37207C0.205078 8.9209 0.031901 8.38542 0 7.76562H1.56543C1.59733 8.13477 1.71582 8.4401 1.9209 8.68164C2.13053 8.92318 2.40169 9.10319 2.73438 9.22168C3.06706 9.34017 3.42708 9.39941 3.81445 9.39941C4.2474 9.39941 4.63021 9.33333 4.96289 9.20117C5.30013 9.06445 5.56673 8.87305 5.7627 8.62695C5.95866 8.3763 6.05664 8.08691 6.05664 7.75879C6.05664 7.46257 5.97005 7.22103 5.79688 7.03418C5.62826 6.84277 5.39811 6.68555 5.10645 6.5625C4.81934 6.4349 4.49121 6.32324 4.12207 6.22754L2.93262 5.89941C2.09863 5.67611 1.44694 5.3457 0.977539 4.9082C0.512695 4.4707 0.280273 3.90332 0.280273 3.20605C0.280273 2.61816 0.4375 2.10547 0.751953 1.66797C1.07096 1.22591 1.50163 0.884115 2.04395 0.642578C2.59082 0.396484 3.20605 0.273438 3.88965 0.273438C4.58691 0.273438 5.19987 0.396484 5.72852 0.642578C6.26172 0.884115 6.67871 1.2168 6.97949 1.64062C7.28483 2.06445 7.44434 2.54753 7.45801 3.08984H5.94043C5.8903 2.625 5.67383 2.26497 5.29102 2.00977C4.91276 1.75456 4.43424 1.62695 3.85547 1.62695C3.44531 1.62695 3.08757 1.69076 2.78223 1.81836C2.48145 1.94596 2.24674 2.1237 2.07812 2.35156C1.91406 2.57487 1.83203 2.83008 1.83203 3.11719C1.83203 3.44076 1.93001 3.7028 2.12598 3.90332C2.3265 4.09928 2.56803 4.25651 2.85059 4.375C3.1377 4.48893 3.41113 4.58008 3.6709 4.64844L4.66211 4.9082C4.98568 4.99023 5.31836 5.10189 5.66016 5.24316C6.00651 5.37988 6.32552 5.5599 6.61719 5.7832C6.90885 6.00195 7.14355 6.27539 7.32129 6.60352C7.50358 6.92708 7.59473 7.31901 7.59473 7.7793C7.59473 8.35352 7.44661 8.86621 7.15039 9.31738C6.85417 9.76855 6.4235 10.124 5.8584 10.3838C5.29785 10.639 4.61882 10.7666 3.82129 10.7666Z" fill="#4C343E"/>
<path d="M11.9424 10.6914C11.4229 10.6914 10.9671 10.582 10.5752 10.3633C10.1833 10.1445 9.87793 9.82096 9.65918 9.39258C9.44499 8.96419 9.33789 8.43555 9.33789 7.80664V2.95312H10.8418V7.62207C10.8418 8.1735 10.9854 8.60417 11.2725 8.91406C11.5641 9.22396 11.9583 9.37891 12.4551 9.37891C12.7969 9.37891 13.0999 9.30599 13.3643 9.16016C13.6331 9.00977 13.8451 8.79329 14 8.51074C14.1549 8.22363 14.2324 7.87956 14.2324 7.47852V2.95312H15.7363V10.5957H14.3008L14.2939 8.72266H14.4375C14.2142 9.41536 13.8883 9.91667 13.46 10.2266C13.0316 10.5365 12.5257 10.6914 11.9424 10.6914Z" fill="#4C343E"/>
<path d="M21.5537 10.7461C21.0934 10.7461 20.7152 10.6686 20.4189 10.5137C20.1273 10.3542 19.8971 10.1696 19.7285 9.95996C19.5645 9.75033 19.4368 9.56348 19.3457 9.39941H19.2227V10.5957H17.7598V0.410156H19.2637V4.19727H19.3457C19.4368 4.03776 19.5622 3.85319 19.7217 3.64355C19.8857 3.43392 20.1113 3.25163 20.3984 3.09668C20.6901 2.93717 21.0752 2.85742 21.5537 2.85742C22.1644 2.85742 22.709 3.01237 23.1875 3.32227C23.6706 3.63216 24.0511 4.08105 24.3291 4.66895C24.6071 5.25684 24.7461 5.96549 24.7461 6.79492C24.7461 7.61523 24.6094 8.32161 24.3359 8.91406C24.0625 9.50195 23.6842 9.9554 23.2012 10.2744C22.7227 10.5889 22.1735 10.7461 21.5537 10.7461ZM21.2188 9.46777C21.6562 9.46777 22.0231 9.34928 22.3193 9.1123C22.6156 8.87533 22.8366 8.55404 22.9824 8.14844C23.1328 7.74284 23.208 7.28711 23.208 6.78125C23.208 6.27995 23.1328 5.83105 22.9824 5.43457C22.8366 5.03353 22.6156 4.7168 22.3193 4.48438C22.0277 4.25195 21.6608 4.13574 21.2188 4.13574C20.7904 4.13574 20.4281 4.2474 20.1318 4.4707C19.8356 4.68945 19.6123 4.99707 19.4619 5.39355C19.3115 5.78548 19.2363 6.24805 19.2363 6.78125C19.2363 7.3099 19.3115 7.77702 19.4619 8.18262C19.6169 8.58366 19.8424 8.89811 20.1387 9.12598C20.4349 9.35384 20.7949 9.46777 21.2188 9.46777Z" fill="#4C343E"/>
<path d="M29.6816 2.95312V4.17676H25.5391V2.95312H29.6816ZM26.6533 1.13477H28.1572V8.53125C28.1572 8.83659 28.221 9.06217 28.3486 9.20801C28.4808 9.34928 28.695 9.41992 28.9912 9.41992C29.0687 9.41992 29.1712 9.41081 29.2988 9.39258C29.4264 9.37435 29.5358 9.35612 29.627 9.33789L29.8936 10.541C29.734 10.5957 29.5632 10.6344 29.3809 10.6572C29.1986 10.6846 29.0186 10.6982 28.8408 10.6982C28.1481 10.6982 27.6104 10.5205 27.2275 10.165C26.8447 9.80501 26.6533 9.30143 26.6533 8.6543V1.13477Z" fill="#4C343E"/>
<path d="M31.1855 10.5957V2.95312H32.6895V10.5957H31.1855ZM31.9443 1.78418C31.6846 1.78418 31.4613 1.69759 31.2744 1.52441C31.0921 1.35124 31.001 1.1416 31.001 0.895508C31.001 0.644857 31.0921 0.432943 31.2744 0.259766C31.4613 0.0865885 31.6846 0 31.9443 0C32.2041 0 32.4274 0.0865885 32.6143 0.259766C32.8011 0.432943 32.8945 0.644857 32.8945 0.895508C32.8945 1.1416 32.8011 1.35124 32.6143 1.52441C32.4274 1.69759 32.2041 1.78418 31.9443 1.78418Z" fill="#4C343E"/>
<path d="M37.9805 2.95312V4.17676H33.8379V2.95312H37.9805ZM34.9521 1.13477H36.4561V8.53125C36.4561 8.83659 36.5199 9.06217 36.6475 9.20801C36.7796 9.34928 36.9938 9.41992 37.29 9.41992C37.3675 9.41992 37.4701 9.41081 37.5977 9.39258C37.7253 9.37435 37.8346 9.35612 37.9258 9.33789L38.1924 10.541C38.0329 10.5957 37.862 10.6344 37.6797 10.6572C37.4974 10.6846 37.3174 10.6982 37.1396 10.6982C36.4469 10.6982 35.9092 10.5205 35.5264 10.165C35.1436 9.80501 34.9521 9.30143 34.9521 8.6543V1.13477Z" fill="#4C343E"/>
<path d="M41.002 0.410156V10.5957H39.498V0.410156H41.002Z" fill="#4C343E"/>
<path d="M46.3203 10.7529C45.5684 10.7529 44.9189 10.5911 44.3721 10.2676C43.8252 9.94401 43.4036 9.48828 43.1074 8.90039C42.8158 8.3125 42.6699 7.62207 42.6699 6.8291C42.6699 6.04525 42.8135 5.35482 43.1006 4.75781C43.3923 4.16081 43.8024 3.69596 44.3311 3.36328C44.8597 3.02604 45.4795 2.85742 46.1904 2.85742C46.6279 2.85742 47.0495 2.93034 47.4551 3.07617C47.8607 3.21745 48.2253 3.44076 48.5488 3.74609C48.8724 4.05143 49.1276 4.44792 49.3145 4.93555C49.5059 5.41862 49.6016 6.00651 49.6016 6.69922V7.23242H43.5107V6.11133H48.8291L48.125 6.48047C48.125 6.01107 48.0521 5.59863 47.9062 5.24316C47.7604 4.88314 47.5439 4.60286 47.2568 4.40234C46.9743 4.20182 46.6188 4.10156 46.1904 4.10156C45.7666 4.10156 45.4043 4.2041 45.1035 4.40918C44.8027 4.61426 44.5726 4.88542 44.4131 5.22266C44.2581 5.55534 44.1807 5.91992 44.1807 6.31641V7.08203C44.1807 7.60612 44.2695 8.05046 44.4473 8.41504C44.6296 8.77507 44.8825 9.0485 45.2061 9.23535C45.5296 9.41764 45.9056 9.50879 46.334 9.50879C46.6165 9.50879 46.8717 9.47005 47.0996 9.39258C47.3275 9.31055 47.5234 9.18978 47.6875 9.03027C47.8561 8.86621 47.9837 8.66569 48.0703 8.42871L49.4854 8.76367C49.3623 9.1556 49.1549 9.50195 48.8633 9.80273C48.5762 10.1035 48.2161 10.3382 47.7832 10.5068C47.3548 10.6709 46.8672 10.7529 46.3203 10.7529Z" fill="#4C343E"/>
</svg>
