<svg width="17" height="16" viewBox="0 0 17 16" fill="none" xmlns="http://www.w3.org/2000/svg">
<path d="M10.0547 0C10.7297 0 11.2773 0.547642 11.2773 1.22266V3H10.2773V1.22266C10.2773 1.09993 10.1774 1 10.0547 1H1.5C1.37727 1 1.27734 1.09993 1.27734 1.22266V6.73242L3 5.58398L3.30371 5.38086L3.58984 5.60938L5.27734 6.95898V6.22266C5.27734 5.58968 5.75848 5.06825 6.375 5.00586L6.5 5H15.0547C15.7297 5 16.2773 5.54764 16.2773 6.22266V14.7773C16.2773 15.4524 15.7297 16 15.0547 16H6.5L6.375 15.9941C5.75848 15.9318 5.27734 15.4103 5.27734 14.7773V8.24023L3.25 6.61816L1.27734 7.93359V9.77734C1.27734 9.90007 1.37727 10 1.5 10H3.27734V11H1.5L1.375 10.9941C0.758476 10.9318 0.277344 10.4103 0.277344 9.77734V8L0 7.58398L0.277344 7.39844V1.22266C0.277344 0.589679 0.758476 0.0682461 1.375 0.00585938L1.5 0H10.0547ZM6.5 6C6.37727 6 6.27734 6.09993 6.27734 6.22266V14.7773C6.27734 14.9001 6.37727 15 6.5 15H15.0547C15.1774 15 15.2773 14.9001 15.2773 14.7773V6.22266C15.2773 6.09993 15.1774 6 15.0547 6H6.5ZM9.27734 8.45117C9.27734 8.25481 9.49364 8.13519 9.66016 8.23926L12.9385 10.2881C13.0948 10.386 13.0948 10.614 12.9385 10.7119L9.66016 12.7607C9.49364 12.8648 9.27734 12.7452 9.27734 12.5488V8.45117ZM3.40234 2C4.02366 2 4.52734 2.50368 4.52734 3.125C4.52734 3.74632 4.02366 4.25 3.40234 4.25C2.78102 4.25 2.27734 3.74632 2.27734 3.125C2.27734 2.50368 2.78102 2 3.40234 2Z" fill="#583F4A"/>
</svg>
