<svg width="42" height="16" viewBox="0 0 42 16" fill="none" xmlns="http://www.w3.org/2000/svg">
<path d="M0 2.91193V0.703125H11.6051V2.91193H7.10938V15.2486H4.49574V2.91193H0Z" fill="#583F4A"/>
<path d="M13.7287 15.2486V4.33949H16.2997V15.2486H13.7287ZM15.0213 2.79119C14.6141 2.79119 14.2637 2.65625 13.9702 2.38636C13.6766 2.11174 13.5298 1.78267 13.5298 1.39915C13.5298 1.01089 13.6766 0.681818 13.9702 0.411931C14.2637 0.13731 14.6141 0 15.0213 0C15.4332 0 15.7836 0.13731 16.0724 0.411931C16.366 0.681818 16.5128 1.01089 16.5128 1.39915C16.5128 1.78267 16.366 2.11174 16.0724 2.38636C15.7836 2.65625 15.4332 2.79119 15.0213 2.79119Z" fill="#583F4A"/>
<path d="M24.391 4.33949V6.32812H18.1197V4.33949H24.391ZM19.668 1.72585H22.239V11.9673C22.239 12.313 22.2911 12.5781 22.3952 12.7628C22.5041 12.9427 22.6462 13.0658 22.8214 13.1321C22.9966 13.1984 23.1907 13.2315 23.4038 13.2315C23.5647 13.2315 23.7115 13.2197 23.8441 13.196C23.9814 13.1723 24.0856 13.151 24.1566 13.1321L24.5898 15.142C24.4525 15.1894 24.256 15.2415 24.0004 15.2983C23.7494 15.3551 23.4416 15.3883 23.0771 15.3977C22.4331 15.4167 21.8531 15.3196 21.337 15.1065C20.8209 14.8887 20.4113 14.5526 20.1083 14.098C19.81 13.6435 19.6632 13.0753 19.668 12.3935V1.72585Z" fill="#583F4A"/>
<path d="M29.3466 0.703125V15.2486H26.7756V0.703125H29.3466Z" fill="#583F4A"/>
<path d="M36.82 15.4616C35.7262 15.4616 34.7816 15.2344 33.9862 14.7798C33.1954 14.3205 32.587 13.6719 32.1609 12.8338C31.7347 11.991 31.5217 10.9991 31.5217 9.85795C31.5217 8.7358 31.7347 7.75095 32.1609 6.90341C32.5917 6.05114 33.1931 5.38826 33.9648 4.91477C34.7366 4.43655 35.6433 4.19744 36.685 4.19744C37.3574 4.19744 37.9918 4.30634 38.5884 4.52415C39.1898 4.73722 39.7201 5.06866 40.1793 5.51847C40.6433 5.96828 41.0079 6.54119 41.2731 7.23722C41.5382 7.9285 41.6708 8.75237 41.6708 9.70881V10.4972H32.729V8.7642H39.2063C39.2016 8.27178 39.0951 7.83381 38.8867 7.45028C38.6784 7.06203 38.3872 6.75663 38.0131 6.53409C37.6438 6.31155 37.2129 6.20028 36.7205 6.20028C36.195 6.20028 35.7333 6.32813 35.3356 6.58381C34.9379 6.83475 34.6277 7.16619 34.4052 7.57812C34.1874 7.98532 34.0761 8.43277 34.0714 8.92045V10.4332C34.0714 11.0677 34.1874 11.6122 34.4194 12.0668C34.6514 12.5166 34.9757 12.8622 35.3924 13.1037C35.8091 13.3404 36.2968 13.4588 36.8555 13.4588C37.2295 13.4588 37.5681 13.4067 37.8711 13.3026C38.1741 13.1937 38.4369 13.035 38.6594 12.8267C38.882 12.6184 39.0501 12.3603 39.1637 12.0526L41.5643 12.3224C41.4128 12.9569 41.1239 13.5109 40.6978 13.9844C40.2764 14.4531 39.7366 14.8177 39.0785 15.0781C38.4203 15.3338 37.6675 15.4616 36.82 15.4616Z" fill="#583F4A"/>
</svg>
