<svg width="16" height="16" viewBox="0 0 16 16" fill="none" xmlns="http://www.w3.org/2000/svg">
<path d="M11.5713 1C11.9502 1 12.3141 1.16433 12.582 1.45605C12.8497 1.74773 13 2.14332 13 2.55566V15L8 11.1113L3 15V2.55566C3 2.19463 3.11491 1.84616 3.32324 1.56934L3.41797 1.45605C3.65232 1.20087 3.96018 1.04323 4.28711 1.00781L4.42871 1H11.5713ZM4.42871 2C4.34393 2 4.24345 2.03595 4.15527 2.13184C4.06442 2.23077 4 2.38214 4 2.55566V12.9551L7.38574 10.3213L8 9.84473L8.61426 10.3213L12 12.9551V2.55566C12 2.38214 11.9356 2.23077 11.8447 2.13184C11.7565 2.03595 11.6561 2 11.5713 2H4.42871Z" fill="#583F4A"/>
</svg>
