<svg width="16" height="16" viewBox="0 0 16 16" fill="none" xmlns="http://www.w3.org/2000/svg">
<path d="M6.95606 0.0683637C8.70198 -0.161431 10.4749 0.191779 12 1.07227L11.5 1.9375C10.1655 1.16709 8.61365 0.858449 7.08594 1.05957C5.55831 1.26077 4.13934 1.96028 3.04981 3.04981C1.96028 4.13934 1.26077 5.55831 1.05957 7.08594C0.858449 8.61365 1.16709 10.1655 1.9375 11.5C2.70796 12.8345 3.89768 13.8771 5.32129 14.4668C6.74485 15.0565 8.32317 15.1605 9.81153 14.7617C11.2999 14.3629 12.6157 13.4842 13.5537 12.2617C14.4918 11.0392 15 9.54094 15 8H16C16 9.76108 15.4188 11.473 14.3467 12.8701C13.2746 14.2672 11.7713 15.2718 10.0703 15.7275C8.36933 16.1833 6.56542 16.0645 4.93848 15.3906C3.31162 14.7167 1.95278 13.525 1.07227 12C0.191778 10.4749 -0.16143 8.70198 0.0683637 6.95606C0.29823 5.21005 1.09751 3.58805 2.34278 2.34278C3.58804 1.09751 5.21005 0.29823 6.95606 0.0683637Z" fill="#583F4A"/>
</svg>
