<svg width="16" height="16" viewBox="0 0 16 16" fill="none" xmlns="http://www.w3.org/2000/svg">
<path d="M13.4443 4C14.3033 4 14.9998 4.59678 15 5.33301V10.667L14.9922 10.8027C14.9127 11.4752 14.2499 12 13.4443 12H2.55566L2.39648 11.9932C1.66428 11.9294 1.08202 11.4304 1.00781 10.8027L1 10.667V5.33301C1.00019 4.6428 1.61222 4.07511 2.39648 4.00684L2.55566 4H13.4443ZM7 11H13.4443C13.6444 11 13.8002 10.9305 13.8936 10.8506C13.9845 10.7726 13.9999 10.7044 14 10.667V5.33301C13.9999 5.29557 13.9845 5.22735 13.8936 5.14941C13.8002 5.06952 13.6444 5 13.4443 5H7V11Z" fill="#583F4A"/>
</svg>
