<svg width="16" height="16" viewBox="0 0 16 16" fill="none" xmlns="http://www.w3.org/2000/svg">
<path d="M10.7998 3.5C11.3216 3.5 11.8099 3.73095 12.1611 4.12109C12.5108 4.50965 12.7002 5.02651 12.7002 5.55566V10.4443C12.7002 10.7402 12.8061 11.0151 12.9814 11.21C13.1552 11.403 13.3791 11.4999 13.5996 11.5C13.8203 11.5 14.0449 11.4031 14.2188 11.21C14.3941 11.0151 14.5 10.7402 14.5 10.4443V6.66699H15.5V10.4443C15.5 10.9734 15.3115 11.4904 14.9619 11.8789C14.6107 12.2692 14.1215 12.5 13.5996 12.5C13.0778 12.4999 12.5895 12.2691 12.2383 11.8789C11.8886 11.4904 11.7002 10.9735 11.7002 10.4443V5.55566C11.7002 5.2597 11.5934 4.98493 11.418 4.79004C11.2442 4.59701 11.0204 4.5 10.7998 4.5C10.5792 4.50006 10.3554 4.59694 10.1816 4.79004C10.0062 4.98493 9.90039 5.2597 9.90039 5.55566V10.4443C9.90039 10.9735 9.71103 11.4904 9.36133 11.8789C9.01008 12.2691 8.52186 12.5 8 12.5C7.47814 12.5 6.98992 12.2691 6.63867 11.8789C6.28897 11.4904 6.09961 10.9735 6.09961 10.4443V5.55566C6.09961 5.2597 5.99376 4.98493 5.81836 4.79004C5.64457 4.59694 5.42081 4.50006 5.2002 4.5C4.97959 4.5 4.75585 4.59701 4.58203 4.79004C4.40663 4.98493 4.2998 5.2597 4.2998 5.55566V10.4443C4.2998 10.9735 4.11139 11.4904 3.76172 11.8789C3.41054 12.2691 2.92217 12.4999 2.40039 12.5C1.87846 12.5 1.38935 12.2692 1.03809 11.8789C0.688468 11.4904 0.5 10.9734 0.5 10.4443H1.5C1.5 10.7402 1.60595 11.0151 1.78125 11.21C1.95509 11.4031 2.17971 11.5 2.40039 11.5C2.62094 11.4999 2.84482 11.403 3.01855 11.21C3.19391 11.0151 3.2998 10.7402 3.2998 10.4443V5.55566C3.2998 5.02651 3.48917 4.50965 3.83887 4.12109C4.19011 3.73095 4.67838 3.5 5.2002 3.5C5.72203 3.50006 6.21031 3.73088 6.56152 4.12109C6.91122 4.50965 7.09961 5.02651 7.09961 5.55566V10.4443C7.09961 10.7403 7.20643 11.0151 7.38184 11.21C7.55566 11.4031 7.77936 11.5 8 11.5C8.22064 11.5 8.44434 11.403 8.61816 11.21C8.79357 11.0151 8.90039 10.7403 8.90039 10.4443V5.55566C8.90039 5.02651 9.08878 4.50965 9.43848 4.12109C9.78969 3.73088 10.278 3.50006 10.7998 3.5Z" fill="#583F4A"/>
</svg>
