<svg width="24" height="9" viewBox="0 0 24 9" fill="none" xmlns="http://www.w3.org/2000/svg">
<path d="M0 1.14844V0H6.7793V1.14844H4.06641V8.73047H2.72461V1.14844H0Z" fill="#4C343E"/>
<path d="M10.0664 8.86523C9.42188 8.86523 8.86523 8.72656 8.39648 8.44922C7.92773 8.17188 7.56641 7.78125 7.3125 7.27734C7.0625 6.77344 6.9375 6.18164 6.9375 5.50195C6.9375 4.83008 7.06055 4.23828 7.30664 3.72656C7.55664 3.21484 7.9082 2.81641 8.36133 2.53125C8.81445 2.24219 9.3457 2.09766 9.95508 2.09766C10.3301 2.09766 10.6914 2.16016 11.0391 2.28516C11.3867 2.40625 11.6992 2.59766 11.9766 2.85938C12.2539 3.12109 12.4727 3.46094 12.6328 3.87891C12.7969 4.29297 12.8789 4.79688 12.8789 5.39062V5.84766H7.6582V4.88672H12.2168L11.6133 5.20312C11.6133 4.80078 11.5508 4.44727 11.4258 4.14258C11.3008 3.83398 11.1152 3.59375 10.8691 3.42188C10.627 3.25 10.3223 3.16406 9.95508 3.16406C9.5918 3.16406 9.28125 3.25195 9.02344 3.42773C8.76562 3.60352 8.56836 3.83594 8.43164 4.125C8.29883 4.41016 8.23242 4.72266 8.23242 5.0625V5.71875C8.23242 6.16797 8.30859 6.54883 8.46094 6.86133C8.61719 7.16992 8.83398 7.4043 9.11133 7.56445C9.38867 7.7207 9.71094 7.79883 10.0781 7.79883C10.3203 7.79883 10.5391 7.76562 10.7344 7.69922C10.9297 7.62891 11.0977 7.52539 11.2383 7.38867C11.3828 7.24805 11.4922 7.07617 11.5664 6.87305L12.7793 7.16016C12.6738 7.49609 12.4961 7.79297 12.2461 8.05078C12 8.30859 11.6914 8.50977 11.3203 8.6543C10.9531 8.79492 10.5352 8.86523 10.0664 8.86523Z" fill="#4C343E"/>
<path d="M13.5059 8.73047L16.0781 4.86914L16.0723 5.86523L13.6406 2.17969H15.0938L15.832 3.375C16.0352 3.70312 16.2129 4.01758 16.3652 4.31836C16.5215 4.61914 16.6797 4.91016 16.8398 5.19141H16.248C16.416 4.91016 16.5703 4.61914 16.7109 4.31836C16.8516 4.01758 17.0273 3.70312 17.2383 3.375L17.9941 2.17969H19.4238L16.9688 5.90039V4.93359L19.5234 8.73047H18.0762L17.1973 7.33594C16.9941 7.01172 16.8164 6.70312 16.6641 6.41016C16.5117 6.11719 16.3555 5.83398 16.1953 5.56055H16.793C16.6367 5.83398 16.4883 6.11719 16.3477 6.41016C16.207 6.70312 16.0352 7.01172 15.832 7.33594L14.9414 8.73047H13.5059Z" fill="#4C343E"/>
<path d="M23.7422 2.17969V3.22852H20.1914V2.17969H23.7422ZM21.1465 0.621094H22.4355V6.96094C22.4355 7.22266 22.4902 7.41602 22.5996 7.54102C22.7129 7.66211 22.8965 7.72266 23.1504 7.72266C23.2168 7.72266 23.3047 7.71484 23.4141 7.69922C23.5234 7.68359 23.6172 7.66797 23.6953 7.65234L23.9238 8.68359C23.7871 8.73047 23.6406 8.76367 23.4844 8.7832C23.3281 8.80664 23.1738 8.81836 23.0215 8.81836C22.4277 8.81836 21.9668 8.66602 21.6387 8.36133C21.3105 8.05273 21.1465 7.62109 21.1465 7.06641V0.621094Z" fill="#4C343E"/>
</svg>
