<svg width="16" height="16" viewBox="0 0 16 16" fill="none" xmlns="http://www.w3.org/2000/svg">
<path d="M8 9.5C9.93121 9.5 11.5 11.0649 11.5 13H10.5C10.5 11.6179 9.37961 10.5 8 10.5C6.62039 10.5 5.5 11.6179 5.5 13H4.5C4.5 11.0649 6.06879 9.5 8 9.5ZM2 7.5V9H3V10H1.5C1.3674 10 1.24025 9.94728 1.14648 9.85352C1.05272 9.75975 1 9.6326 1 9.5V7.5H2ZM15 9.5C15 9.6326 14.9473 9.75975 14.8535 9.85352C14.7597 9.94728 14.6326 10 14.5 10H13V9H14V7.5H15V9.5ZM8 3.40039C8.66304 3.40039 9.29874 3.66397 9.76758 4.13281C10.2363 4.60163 10.5 5.23747 10.5 5.90039C10.4999 6.56325 10.2363 7.19924 9.76758 7.66797C9.29876 8.13666 8.66293 8.40039 8 8.40039C7.33707 8.40039 6.70124 8.13666 6.23242 7.66797C5.7637 7.19924 5.50013 6.56325 5.5 5.90039C5.5 5.23747 5.76373 4.60163 6.23242 4.13281C6.70126 3.66397 7.33696 3.40039 8 3.40039ZM8 4.40039C7.60218 4.40039 7.22076 4.55854 6.93945 4.83984C6.6583 5.12112 6.5 5.50268 6.5 5.90039C6.50013 6.29804 6.65826 6.67975 6.93945 6.96094C7.22073 7.24209 7.60229 7.40039 8 7.40039C8.39771 7.40039 8.77927 7.24209 9.06055 6.96094C9.34174 6.67975 9.49987 6.29804 9.5 5.90039C9.5 5.50268 9.3417 5.12112 9.06055 4.83984C8.77924 4.55854 8.39782 4.40039 8 4.40039ZM3.5 3H2V4.5H1V2.5C1 2.22386 1.22386 2 1.5 2H3.5V3ZM14.5 2C14.7761 2 15 2.22386 15 2.5V4.5H14V3H12.5V2H14.5Z" fill="#583F4A"/>
</svg>
