<svg width="16" height="16" viewBox="0 0 16 16" fill="none" xmlns="http://www.w3.org/2000/svg">
<path d="M5 9.58301C7.65009 9.58301 9.98129 11.3574 9.98145 13.75H8.98145C8.98128 12.0885 7.29551 10.583 5 10.583C2.70451 10.583 1.01872 12.0885 1.01855 13.75H0.0185547C0.0187133 11.3574 2.34992 9.58302 5 9.58301ZM12.5234 0.630859C13.7826 1.78138 14.5 3.35184 14.5 5C14.5 6.64816 13.7826 8.21862 12.5234 9.36914L11.8496 8.63086C12.9127 7.65945 13.5 6.35218 13.5 5C13.5 3.64781 12.9127 2.34055 11.8496 1.36914L12.5234 0.630859ZM5 2.25C5.78086 2.25 6.52985 2.56018 7.08203 3.1123C7.6342 3.66447 7.94431 4.41346 7.94434 5.19434C7.94434 5.97525 7.63422 6.72418 7.08203 7.27637C6.52984 7.82856 5.78091 8.13867 5 8.13867C4.21912 8.13864 3.47013 7.82853 2.91797 7.27637C2.36585 6.72419 2.05566 5.9752 2.05566 5.19434C2.05569 4.41346 2.3658 3.66447 2.91797 3.1123C3.47013 2.56014 4.21912 2.25003 5 2.25ZM10.3369 2.62793C11.0155 3.24794 11.4072 4.09905 11.4072 4.99707C11.4072 5.89512 11.0155 6.74618 10.3369 7.36621L9.66309 6.62793C10.1455 6.18701 10.4072 5.59913 10.4072 4.99707C10.4072 4.395 10.1456 3.80712 9.66309 3.36621L10.3369 2.62793ZM5 3.25C4.48434 3.25003 3.98963 3.45471 3.625 3.81934C3.26037 4.18396 3.05569 4.67868 3.05566 5.19434C3.05566 5.70998 3.26041 6.20469 3.625 6.56934C3.98963 6.93396 4.48434 7.13864 5 7.13867C5.5157 7.13867 6.01035 6.93399 6.375 6.56934C6.73965 6.20468 6.94434 5.71003 6.94434 5.19434C6.94431 4.67868 6.73963 4.18396 6.375 3.81934C6.01036 3.45475 5.51565 3.25 5 3.25Z" fill="#583F4A"/>
</svg>
