<svg width="16" height="16" viewBox="0 0 16 16" fill="none" xmlns="http://www.w3.org/2000/svg">
<path d="M5.26074 2.45801C4.32267 2.86836 3.49945 3.5034 2.86231 4.30664C2.22512 5.10997 1.79295 6.05726 1.60547 7.06641C1.41802 8.07543 1.48018 9.11529 1.78613 10.0947C2.09219 11.0743 2.63328 11.9641 3.36133 12.6855C4.08937 13.407 4.98273 13.939 5.96289 14.2344C6.94298 14.5297 7.98048 14.5792 8.98438 14.3799C9.98824 14.1806 10.9287 13.7384 11.7227 13.0908C12.5166 12.4431 13.1403 11.6094 13.5391 10.6641L14.4609 11.0527C13.9988 12.1483 13.2751 13.1142 12.3545 13.8652C11.434 14.6161 10.344 15.1301 9.17969 15.3613C8.01512 15.5925 6.81072 15.534 5.67383 15.1914C4.53711 14.8487 3.50119 14.2318 2.65723 13.3955C1.81335 12.5592 1.18668 11.5284 0.832033 10.3936C0.477369 9.25841 0.405803 8.05316 0.623048 6.88379C0.840305 5.71446 1.33951 4.61577 2.07813 3.68457C2.81675 2.7534 3.77233 2.0179 4.86035 1.54199L5.26074 2.45801ZM8 1C8.91919 1.00002 9.82949 1.18144 10.6787 1.5332C11.5279 1.88498 12.3002 2.39985 12.9502 3.0498C13.6001 3.69978 14.115 4.47208 14.4668 5.32129C14.8186 6.17055 15 7.08077 15 8H8V1ZM9 7H13.9141C13.8391 6.55653 13.7159 6.12159 13.543 5.7041C13.2415 4.97619 12.7993 4.31495 12.2422 3.75781C11.6851 3.2007 11.0238 2.75856 10.2959 2.45703C9.87839 2.2841 9.44349 2.15995 9 2.08496V7Z" fill="#583F4A"/>
</svg>
