<svg width="16" height="16" viewBox="0 0 16 16" fill="none" xmlns="http://www.w3.org/2000/svg">
<path d="M15 2C15.5523 2 16 2.44772 16 3V13C16 13.5523 15.5523 14 15 14H1L0.897461 13.9951C0.427034 13.9472 0.0527828 13.573 0.00488281 13.1025L0 13V3C0 2.96771 0.00189047 2.93581 0.00488281 2.9043C0.00640986 2.88822 0.00846295 2.87229 0.0107422 2.85645C0.0175467 2.80913 0.026853 2.76271 0.0400391 2.71777C0.0540029 2.6702 0.0722148 2.62442 0.0927734 2.58008C0.113043 2.53634 0.135982 2.49415 0.162109 2.4541C0.168778 2.44389 0.17559 2.43378 0.182617 2.42383C0.231748 2.35421 0.289607 2.29127 0.354492 2.23633C0.359772 2.23186 0.364745 2.22701 0.370117 2.22266C0.386532 2.20933 0.403646 2.19685 0.420898 2.18457C0.430824 2.17751 0.440982 2.17077 0.451172 2.16406C0.469576 2.15195 0.488588 2.14079 0.507812 2.12988C0.515042 2.12578 0.521957 2.12111 0.529297 2.11719C0.546216 2.10814 0.563572 2.09988 0.581055 2.0918C0.593448 2.08607 0.605503 2.07945 0.618164 2.07422C0.641104 2.06474 0.664715 2.05661 0.688477 2.04883C0.69336 2.04723 0.698209 2.04547 0.703125 2.04395C0.76546 2.0246 0.830564 2.01169 0.897461 2.00488L1 2H15ZM1 6V13H15V6H1ZM2 3C1.44772 3 1 3.44772 1 4C1 4.55228 1.44772 5 2 5C2.55228 5 3 4.55228 3 4C3 3.44772 2.55228 3 2 3ZM5 3C4.44772 3 4 3.44772 4 4C4 4.55228 4.44772 5 5 5C5.55228 5 6 4.55228 6 4C6 3.44772 5.55228 3 5 3ZM8 3C7.44772 3 7 3.44772 7 4C7 4.55228 7.44772 5 8 5C8.55228 5 9 4.55228 9 4C9 3.44772 8.55228 3 8 3Z" fill="#583F4A"/>
</svg>
