<svg width="16" height="16" viewBox="0 0 16 16" fill="none" xmlns="http://www.w3.org/2000/svg">
<path d="M15 12.2773C15 13.3035 14.048 13.9999 13.0557 14H2.94434C1.95204 13.9999 1 13.3035 1 12.2773V10.4443H2V12.2773C2 12.6012 2.34125 13 2.94434 13H13.0557C13.6588 13 14 12.6012 14 12.2773V10.1387H15V12.2773ZM10.8945 11.0527H9.93262L9.40332 9.64453H6.54883L6.01953 11.0527H5.05859L7.35156 4.94727H8.60059L10.8945 11.0527ZM6.92383 8.64453H9.02734L7.97559 5.84473L6.92383 8.64453ZM1.50977 7.5C1.78591 7.5 2.00977 7.72386 2.00977 8C2.00977 8.27614 1.78591 8.5 1.50977 8.5H1.5C1.22386 8.5 1 8.27614 1 8C1 7.72386 1.22386 7.5 1.5 7.5H1.50977ZM14.5098 7.5C14.7859 7.5 15.0098 7.72386 15.0098 8C15.0098 8.27614 14.7859 8.5 14.5098 8.5H14.5C14.2239 8.5 14 8.27614 14 8C14 7.72386 14.2239 7.5 14.5 7.5H14.5098ZM13.0557 2C14.048 2.00005 15 2.6965 15 3.72266V5.86133H14V3.72266C14 3.39884 13.6588 3.00005 13.0557 3H2.94434C2.34125 3.00005 2 3.39884 2 3.72266V5.86133H1V3.72266C1 2.6965 1.95204 2.00005 2.94434 2H13.0557Z" fill="#583F4A"/>
</svg>
