<svg width="16" height="16" viewBox="0 0 16 16" fill="none" xmlns="http://www.w3.org/2000/svg">
<path d="M6 0C8.70738 0 10.9953 1.79336 11.7422 4.25684C14.2063 5.00333 16 7.29219 16 10C16 13.3137 13.3137 16 10 16C7.29219 16 5.00333 14.2063 4.25684 11.7422C1.79336 10.9953 0 8.70738 0 6C0 2.68629 2.68629 0 6 0ZM11.9697 5.40332C11.9891 5.59962 12 5.7986 12 6C12 9.31371 9.31371 12 6 12C5.7986 12 5.59962 11.9891 5.40332 11.9697C6.16792 13.7517 7.93804 15 10 15C12.7614 15 15 12.7614 15 10C15 7.93804 13.7517 6.16792 11.9697 5.40332ZM10 5C7.23858 5 5 7.23858 5 10C5 10.3123 5.03018 10.6176 5.08496 10.9141C5.38175 10.969 5.68731 11 6 11C8.76142 11 11 8.76142 11 6C11 5.68731 10.969 5.38175 10.9141 5.08496C10.6176 5.03018 10.3123 5 10 5ZM6 1C3.23858 1 1 3.23858 1 6C1 8.06151 2.24794 9.83083 4.0293 10.5957C4.00998 10.3997 4 10.201 4 10C4 6.68629 6.68629 4 10 4C10.201 4 10.3997 4.00998 10.5957 4.0293C9.83083 2.24794 8.06151 1 6 1Z" fill="#583F4A"/>
</svg>
