<svg width="16" height="16" viewBox="0 0 16 16" fill="none" xmlns="http://www.w3.org/2000/svg">
<path d="M9.99609 0C10.2163 1.99394e-05 10.4343 0.0435001 10.6377 0.12793C10.8402 0.212063 11.0238 0.336006 11.1787 0.491211L11.1797 0.490234L14.5107 3.80078L14.5146 3.80469C14.8253 4.11978 14.9999 4.5439 15 4.98633C15 5.42893 14.8254 5.85377 14.5146 6.16895L14.5117 6.17188L7.64844 13H15V14H3.5752C3.44308 14 3.31632 13.9477 3.22266 13.8545L0.494141 11.1377L0.495117 11.1367C0.338914 10.9824 0.213764 10.7992 0.128906 10.5967C0.0438671 10.3936 0 10.1752 0 9.95508C5.54103e-05 9.73492 0.0438262 9.51654 0.128906 9.31348C0.214035 9.11043 0.339272 8.92606 0.496094 8.77148L8.8125 0.491211C8.96737 0.335916 9.15095 0.212122 9.35352 0.12793C9.557 0.0433978 9.77573 0 9.99609 0ZM1.19922 9.48242L1.19727 9.48438C1.13475 9.5461 1.08558 9.61959 1.05176 9.7002C1.01792 9.78096 1.00006 9.8677 1 9.95508C1 10.0426 1.01787 10.13 1.05176 10.2109C1.08559 10.2915 1.13474 10.365 1.19727 10.4268L1.19922 10.4287L3.78125 13H6.23047L7.56934 11.667L3.1709 7.51855L1.19922 9.48242ZM10.4727 1.19727C10.4105 1.13481 10.3357 1.08572 10.2539 1.05176C10.1722 1.01788 10.0847 1.00002 9.99609 1C9.90732 1 9.81912 1.01777 9.7373 1.05176C9.65572 1.08569 9.58155 1.13495 9.51953 1.19727L9.51758 1.19922L3.87988 6.8125L8.27832 10.9619L13.8057 5.46289C13.9302 5.33477 14 5.16391 14 4.98633C13.9999 4.80734 13.9292 4.63524 13.8027 4.50684V4.50586L10.4746 1.2002L10.4727 1.19824L10.8271 0.845703L10.4727 1.19727Z" fill="#26171D"/>
</svg>
