<svg width="18" height="18" viewBox="0 0 18 18" fill="none" xmlns="http://www.w3.org/2000/svg">
<path d="M9 0.625C13.6254 0.625 17.375 4.37462 17.375 9C17.375 13.6254 13.6254 17.375 9 17.375C4.37462 17.375 0.625 13.6254 0.625 9C0.625 4.37462 4.37462 0.625 9 0.625ZM3.3623 4.24707C2.27894 5.53079 1.625 7.18872 1.625 9C1.625 13.0731 4.9269 16.375 9 16.375C10.8112 16.375 12.4682 15.72 13.752 14.6367L3.3623 4.24707ZM9 1.625C7.18872 1.625 5.53079 2.27894 4.24707 3.3623L14.6367 13.752C15.72 12.4682 16.375 10.8112 16.375 9C16.375 4.9269 13.0731 1.625 9 1.625Z" fill="#16050C" fill-opacity="0.6"/>
</svg>
