<svg width="18" height="18" viewBox="0 0 18 18" fill="none" xmlns="http://www.w3.org/2000/svg">
<path fill-rule="evenodd" clip-rule="evenodd" d="M16 11.5H10.9229V18H7.07715V11.5H2V2.9248C2.00006 2.17355 2.2486 1.49054 2.73926 0.921875C3.25349 0.325966 3.93785 8.23086e-05 4.73047 0H16V11.5ZM8.07715 17H9.92285V11.5H8.07715V17ZM3 10.5H15V8H3V10.5ZM4.73047 1C4.23829 1.00008 3.8268 1.19194 3.49609 1.5752C3.16544 1.95845 3.00004 2.40828 3 2.9248V7H15V1H13V5H12V1H10V3H9V1H4.73047Z" fill="#26171D"/>
</svg>
