<svg width="16" height="16" viewBox="0 0 16 16" fill="none" xmlns="http://www.w3.org/2000/svg">
<path d="M3 11H2V4H3V11ZM15 11H14V4H15V11ZM5.5 6.75C5.91421 6.75 6.25 7.08579 6.25 7.5C6.25 7.91421 5.91421 8.25 5.5 8.25C5.08579 8.25 4.75 7.91421 4.75 7.5C4.75 7.08579 5.08579 6.75 5.5 6.75ZM8.5 6.75C8.91421 6.75 9.25 7.08579 9.25 7.5C9.25 7.91421 8.91421 8.25 8.5 8.25C8.08579 8.25 7.75 7.91421 7.75 7.5C7.75 7.08579 8.08579 6.75 8.5 6.75ZM11.5 6.75C11.9142 6.75 12.25 7.08579 12.25 7.5C12.25 7.91421 11.9142 8.25 11.5 8.25C11.0858 8.25 10.75 7.91421 10.75 7.5C10.75 7.08579 11.0858 6.75 11.5 6.75Z" fill="#26171D"/>
</svg>
