<svg width="16" height="16" viewBox="0 0 16 16" fill="none" xmlns="http://www.w3.org/2000/svg">
<path fill-rule="evenodd" clip-rule="evenodd" d="M8.24992 0.5C8.87654 0.5 9.42516 0.83009 9.73429 1.3252C10.0207 1.12065 10.3712 1.00003 10.7499 1C11.716 1 12.4997 1.78247 12.4999 2.74902V3.66992C12.7274 3.56174 12.9813 3.50002 13.2499 3.5C14.216 3.5 14.9997 4.28247 14.9999 5.24902V10C14.9999 13.3136 12.3135 15.9999 8.99992 16C7.41909 15.9999 5.97942 15.3878 4.90812 14.3887C3.50679 13.0815 2.27332 11.5136 1.23331 10.0195C0.850524 9.46948 0.686534 8.64603 1.24308 8.00977C1.81563 7.35547 2.81451 7.30662 3.44913 7.89746H3.45011L3.99894 8.38574L3.99992 3.25C3.99992 2.28364 4.7836 1.50022 5.74992 1.5C6.05197 1.50005 6.33683 1.5762 6.58488 1.71094C6.81217 1.0083 7.4716 0.50007 8.24992 0.5ZM8.24992 1.5C7.83578 1.50009 7.49992 1.83584 7.49992 2.25V7.5C7.49992 7.77614 7.27606 8 6.99992 8C6.72385 7.99991 6.49992 7.77609 6.49992 7.5V3.24902C6.49967 2.83539 6.16411 2.50016 5.74992 2.5C5.33589 2.50022 4.99992 2.83592 4.99992 3.25L4.99894 9.5C4.99892 9.6968 4.88349 9.87536 4.70402 9.95605C4.52441 10.0365 4.31394 10.0039 4.16691 9.87305L2.78507 8.64453C2.78104 8.64091 2.77728 8.63655 2.77335 8.63281C2.55146 8.42171 2.19788 8.43769 1.99601 8.66797C1.84959 8.83551 1.82651 9.12184 2.05363 9.44824C3.07296 10.9126 4.26043 12.4172 5.58976 13.6572C6.48328 14.4907 7.68201 14.9999 8.99992 15C11.7612 14.9999 13.9999 12.7613 13.9999 10V5.24902C13.9997 4.83529 13.6642 4.5 13.2499 4.5C12.8358 4.50009 12.4999 4.83584 12.4999 5.25V7.5C12.4999 7.77614 12.2761 8 11.9999 8C11.7238 7.99991 11.4999 7.77609 11.4999 7.5V2.74902C11.4997 2.33529 11.1642 2 10.7499 2C10.3358 2.00009 9.99992 2.33584 9.99992 2.75V7.5C9.99992 7.77614 9.77606 8 9.49992 8C9.22385 7.99991 8.99992 7.77609 8.99992 7.5V2.24902C8.99967 1.83529 8.66424 1.5 8.24992 1.5Z" fill="white" fill-opacity="0.8"/>
</svg>
