<svg width="16" height="16" viewBox="0 0 16 16" fill="none" xmlns="http://www.w3.org/2000/svg">
<g clip-path="url(#clip0_2231_96)">
<path d="M8 0C12.4183 0 16 3.58172 16 8C16 12.4183 12.4183 16 8 16C3.58172 16 0 12.4183 0 8C0 3.58172 3.58172 0 8 0ZM8 1C4.13401 1 1 4.13401 1 8C1 11.866 4.13401 15 8 15C11.866 15 15 11.866 15 8C15 4.13401 11.866 1 8 1ZM8.00684 10.584C8.42097 10.5841 8.75684 10.9198 8.75684 11.334C8.75643 11.7478 8.42072 12.0839 8.00684 12.084H8C7.58604 12.084 7.25041 11.7478 7.25 11.334C7.25 10.9198 7.58579 10.584 8 10.584H8.00684ZM7.0498 4.34863C7.50407 4.16804 8.00339 4.12107 8.48438 4.21289C8.96524 4.30479 9.41001 4.53155 9.76074 4.86816C10.1117 5.20503 10.3531 5.63721 10.4512 6.11035C10.5492 6.58371 10.4985 7.07502 10.3066 7.51953C10.1148 7.96361 9.79135 8.34027 9.38086 8.60352C9.11177 8.77602 8.81221 8.89437 8.5 8.95605V9.33398H7.5V8.50586C7.50004 8.3734 7.55288 8.24605 7.64648 8.15234C7.74024 8.05863 7.86743 8.00586 8 8.00586C8.30093 8.00586 8.59363 7.9201 8.84082 7.76172C9.08778 7.60334 9.27768 7.37999 9.38867 7.12305C9.49948 6.86631 9.52779 6.58458 9.47168 6.31348C9.41545 6.04227 9.27649 5.78972 9.06836 5.58984C8.85994 5.38981 8.59151 5.25167 8.29688 5.19531C8.00194 5.13901 7.69558 5.16737 7.41895 5.27734C7.1426 5.38728 6.90941 5.57248 6.74707 5.80566C6.58501 6.03859 6.5 6.31098 6.5 6.58691H5.5C5.5 6.1038 5.64957 5.63264 5.92676 5.23438C6.20382 4.83643 6.59553 4.52929 7.0498 4.34863Z" fill="#16050C" fill-opacity="0.6"/>
</g>
<defs>
<clipPath id="clip0_2231_96">
<rect width="16" height="16" fill="white"/>
</clipPath>
</defs>
</svg>
