<svg width="16" height="16" viewBox="0 0 16 16" fill="none" xmlns="http://www.w3.org/2000/svg">
<g clip-path="url(#clip0_2709_11175)">
<path d="M13.2656 0.5C13.5588 0.500028 13.8492 0.557768 14.1201 0.669922C14.3912 0.782221 14.6382 0.946796 14.8457 1.1543C15.0532 1.3618 15.2178 1.60877 15.3301 1.87988C15.4422 2.15081 15.5 2.44115 15.5 2.73438C15.5 3.02783 15.4424 3.31873 15.3301 3.58984C15.2178 3.86085 15.0531 4.10701 14.8457 4.31445L4.52637 14.6338L4.3916 14.667L1.12109 15.4854L0.3125 15.6875L0.514648 14.8789L1.33301 11.6084L1.36621 11.4736L11.6855 1.1543C12.1046 0.735365 12.6731 0.5 13.2656 0.5ZM14 13H15V14H14V15H13V14H12V13H13V12H14V13ZM13.2656 1.5C12.9383 1.5 12.6241 1.62993 12.3926 1.86133L2.26855 11.9844L1.68652 14.3125L4.01465 13.7305L14.1387 3.60742C14.2532 3.49282 14.3442 3.35672 14.4062 3.20703C14.4683 3.05727 14.5 2.89647 14.5 2.73438C14.5 2.57232 14.4683 2.41144 14.4062 2.26172C14.3442 2.11204 14.2532 1.9759 14.1387 1.86133C14.0241 1.74676 13.888 1.65579 13.7383 1.59375C13.5886 1.53173 13.4277 1.50003 13.2656 1.5ZM3 2H4V3H3V4H2V3H1V2H2V1H3V2Z" fill="#26171D"/>
</g>
<defs>
<clipPath id="clip0_2709_11175">
<rect width="16" height="16" fill="white"/>
</clipPath>
</defs>
</svg>
