<svg width="16" height="16" viewBox="0 0 16 16" fill="none" xmlns="http://www.w3.org/2000/svg">
<path d="M5.16699 1C5.62697 1.00018 5.99982 1.37303 6 1.83301V3H10V1.83301C10.0002 1.37303 10.373 1.00018 10.833 1H14.167C14.627 1.00018 14.9998 1.37303 15 1.83301V5.16699L14.9961 5.25195C14.9534 5.67204 14.5983 5.99984 14.167 6H13V10H14.167C14.627 10.0002 14.9998 10.373 15 10.833V14.167L14.9961 14.252C14.9534 14.672 14.5983 14.9998 14.167 15H10.833C10.4017 14.9998 10.0466 14.672 10.0039 14.252L10 14.167V13H6V14.167L5.99609 14.252C5.95341 14.672 5.5983 14.9998 5.16699 15H1.83301C1.4017 14.9998 1.04659 14.672 1.00391 14.252L1 14.167V10.833C1.00018 10.373 1.37303 10.0002 1.83301 10H3V6H1.83301C1.4017 5.99984 1.04659 5.67204 1.00391 5.25195L1 5.16699V1.83301C1.00018 1.37303 1.37303 1.00018 1.83301 1H5.16699ZM2 14H5V11H2V14ZM11 14H14V11H11V14ZM6 4V5.16699L5.99609 5.25195C5.95341 5.67204 5.5983 5.99984 5.16699 6H4V10H5.16699C5.62697 10.0002 5.99982 10.373 6 10.833V12H10V10.833C10.0002 10.373 10.373 10.0002 10.833 10H12V6H10.833C10.4017 5.99984 10.0466 5.67204 10.0039 5.25195L10 5.16699V4H6ZM2 5H5V2H2V5ZM11 5H14V2H11V5Z" fill="white"/>
</svg>
