<svg width="14" height="14" viewBox="0 0 14 14" fill="none" xmlns="http://www.w3.org/2000/svg">
<g clip-path="url(#clip0_2513_9712)">
<path d="M7.4375 0.0400391C7.43784 0.0680596 7.43903 0.110565 7.44043 0.165039C7.44323 0.27402 7.44867 0.43275 7.45996 0.62793C7.4826 1.01915 7.52811 1.55494 7.61816 2.13379C7.70847 2.71417 7.8426 3.32791 8.03906 3.87988C8.23742 4.43714 8.48766 4.89977 8.79395 5.20605C9.10023 5.51234 9.56286 5.76258 10.1201 5.96094C10.6721 6.1574 11.2858 6.29153 11.8662 6.38184C12.4451 6.47189 12.9808 6.5174 13.3721 6.54004C13.5673 6.55133 13.726 6.55677 13.835 6.55957C13.8894 6.56097 13.9319 6.56216 13.96 6.5625H14V7.4375H13.96C13.9319 7.43784 13.8894 7.43903 13.835 7.44043C13.726 7.44323 13.5673 7.44867 13.3721 7.45996C12.9808 7.4826 12.4451 7.52811 11.8662 7.61816C11.2858 7.70847 10.6721 7.8426 10.1201 8.03906C9.56286 8.23742 9.10023 8.48766 8.79395 8.79395C8.48766 9.10023 8.23742 9.56286 8.03906 10.1201C7.8426 10.6721 7.70847 11.2858 7.61816 11.8662C7.52811 12.4451 7.4826 12.9808 7.45996 13.3721C7.44867 13.5673 7.44323 13.726 7.44043 13.835C7.4392 13.883 7.43788 13.9216 7.4375 13.9492V14H6.5625V13.96C6.56216 13.9319 6.56097 13.8894 6.55957 13.835C6.55677 13.726 6.55133 13.5673 6.54004 13.3721C6.5174 12.9808 6.47189 12.4451 6.38184 11.8662C6.29153 11.2858 6.1574 10.6721 5.96094 10.1201C5.76258 9.56286 5.51234 9.10023 5.20605 8.79395C4.89977 8.48766 4.43714 8.23742 3.87988 8.03906C3.32791 7.8426 2.71417 7.70847 2.13379 7.61816C1.55494 7.52811 1.01915 7.4826 0.62793 7.45996C0.43275 7.44867 0.27402 7.44323 0.165039 7.44043C0.110565 7.43903 0.0680596 7.43784 0.0400391 7.4375H0V6.5625H0.0400391C0.0680596 6.56216 0.110565 6.56097 0.165039 6.55957C0.27402 6.55677 0.43275 6.55133 0.62793 6.54004C1.01916 6.5174 1.55494 6.47189 2.13379 6.38184C2.71417 6.29153 3.32791 6.1574 3.87988 5.96094C4.43714 5.76258 4.89977 5.51234 5.20605 5.20605C5.51234 4.89977 5.76258 4.43714 5.96094 3.87988C6.1574 3.32791 6.29153 2.71417 6.38184 2.13379C6.47189 1.55494 6.5174 1.01916 6.54004 0.62793C6.55133 0.43275 6.55677 0.27402 6.55957 0.165039C6.56097 0.110565 6.56216 0.0680596 6.5625 0.0400391V0H7.4375V0.0400391ZM12.6875 1.3125H14V2.1875H12.6875V3.5H11.8125V2.1875H10.5V1.3125H11.8125V0H12.6875V1.3125Z" fill="#651A39"/>
</g>
<defs>
<clipPath id="clip0_2513_9712">
<rect width="14" height="14" fill="white"/>
</clipPath>
</defs>
</svg>
