<svg width="16" height="16" viewBox="0 0 16 16" fill="none" xmlns="http://www.w3.org/2000/svg">
<path d="M5.22266 2.12301C6.54901 1.49622 8.04893 1.3365 9.47754 1.66988C10.906 2.00331 12.1799 2.81089 13.0918 3.95992C13.5601 4.55021 13.9086 5.29082 14.1406 6.00289C14.3723 6.71416 14.5 7.43481 14.5 7.99996C14.5 9.0489 14.3034 9.74822 13.8262 10.2255C13.3949 10.6568 12.8101 10.8993 12.2002 10.8994C11.5902 10.8994 11.0046 10.6569 10.5732 10.2255C10.529 10.1813 10.4889 10.1355 10.4522 10.0888C10.3963 10.1821 10.3372 10.2732 10.2725 10.3603C9.76845 11.0387 8.9999 11.5 8 11.5C6.06702 11.4999 4.5 9.93295 4.5 7.99996C4.50009 6.06705 6.06707 4.49998 8 4.49996C8.87507 4.49996 9.57285 4.85351 10.0713 5.39645V4.59957H11.0713V8.59957C11.0713 9.10146 11.1089 9.34613 11.2813 9.51852C11.525 9.76225 11.8555 9.89937 12.2002 9.89937C12.5449 9.89932 12.8754 9.76227 13.1191 9.51852C13.3168 9.32076 13.5 8.95089 13.5 7.99996C13.5 7.56479 13.3982 6.95037 13.1904 6.31246C12.9829 5.67546 12.6818 5.05135 12.3086 4.58102C11.537 3.60871 10.4588 2.92562 9.25 2.64352C8.04129 2.36146 6.77261 2.49706 5.65039 3.02731C4.52811 3.55767 3.61789 4.45237 3.06836 5.56539C2.51892 6.67838 2.36175 7.94476 2.62305 9.15816C2.88441 10.3716 3.54892 11.4609 4.50782 12.249C5.46677 13.0371 6.6642 13.4776 7.90528 13.499C9.14643 13.5203 10.3582 13.1209 11.3438 12.3662L11.6484 12.7636L11.9522 13.1601C10.7875 14.052 9.35534 14.5241 7.88867 14.499C6.42187 14.4738 5.00642 13.9529 3.87305 13.0214C2.73973 12.09 1.95438 10.8022 1.64551 9.36813C1.33681 7.93416 1.52253 6.4373 2.17188 5.12203C2.82134 3.80687 3.89649 2.74973 5.22266 2.12301ZM8 5.49996C6.61936 5.49998 5.50009 6.61933 5.5 7.99996C5.5 9.38066 6.6193 10.4999 8 10.5C8.65681 10.5 9.13796 10.211 9.46973 9.76461C9.81176 9.30418 10 8.66408 10 7.99996C9.99997 7.33585 9.81177 6.69571 9.46973 6.23531C9.13796 5.78898 8.65675 5.49996 8 5.49996Z" fill="#26171D"/>
</svg>
