<svg width="16" height="16" viewBox="0 0 16 16" fill="none" xmlns="http://www.w3.org/2000/svg">
<path d="M12.7256 4.2002C13.683 4.20025 15.5 4.48219 15.5 6.93359V12.0195H14.3457V10.9736H14.2881C14.053 11.4771 13.3697 12.2001 12.0605 12.2002C10.6354 12.2002 9.5 11.3364 9.5 9.82812C9.50024 8.05971 11.0203 7.74393 12.4121 7.55762C13.7798 7.37721 14.3465 7.4264 14.3467 6.85352V6.81445C14.3467 5.824 13.825 5.24623 12.7646 5.24609C11.6651 5.24609 11.0639 5.84863 10.8105 6.41113L9.71582 6.00879C10.3018 4.60215 11.5917 4.2002 12.7256 4.2002ZM5.08105 3L8.5 12H7.31836L6.38184 9.4502H2.61914L1.68262 12H0.5L3.91797 3H5.08105ZM14.3467 8.13965C14.1506 8.38139 12.841 8.52307 12.3525 8.58203C11.4537 8.7035 10.6533 8.98424 10.6533 9.88867C10.6533 10.7129 11.3171 11.1347 12.2354 11.1348C13.6032 11.1348 14.3467 10.1904 14.3467 9.22461V8.13965ZM4.46387 4.42285L2.97363 8.4834L6.02734 8.48438L4.53711 4.42285H4.46387Z" fill="white"/>
</svg>
