<svg width="16" height="16" viewBox="0 0 16 16" fill="none" xmlns="http://www.w3.org/2000/svg">
<path d="M14 12.9998H15V13.9998H14V14.9998H13V13.9998H12V12.9998H13V11.9998H14V12.9998ZM9.30957 2.44802C10.4811 1.27644 12.3802 1.27644 13.5518 2.44802L13.6582 2.55934C14.7223 3.737 14.6867 5.55522 13.5518 6.6902L6.69043 13.5515L6.5791 13.658C5.40149 14.7219 3.58318 14.6863 2.44824 13.5515L2.3418 13.4392C1.3122 12.2996 1.31222 10.5603 2.3418 9.42067L2.44824 9.30837L9.30957 2.44802ZM3.15527 10.0154C2.37429 10.7965 2.37425 12.0635 3.15527 12.8445C3.93621 13.6253 5.20236 13.6251 5.9834 12.8445L8.06055 10.7674L5.23145 7.93825L3.15527 10.0154ZM5.93848 7.23122L8.76758 10.0603L10.0605 8.76735L7.23145 5.93825L5.93848 7.23122ZM12.8447 3.15505C12.0637 2.374 10.7977 2.374 10.0166 3.15505L7.93848 5.23122L10.7676 8.06032L12.8447 5.98317C13.6257 5.20217 13.6256 3.93611 12.8447 3.15505ZM3 2.99977H4V3.99977H3V4.99977H2V3.99977H1V2.99977H2V1.99977H3V2.99977Z" fill="#26171D"/>
</svg>
