<svg width="17" height="16" viewBox="0 0 17 16" fill="none" xmlns="http://www.w3.org/2000/svg">
<path d="M14.4001 12.4001H16.1335V13.4001H14.4001V15.1335H13.4001V13.4001H11.6667V12.4001H13.4001V10.6667H14.4001V12.4001Z" fill="white"/>
<path d="M14.3333 9.33342H13.3333V3.66675H2V12.3334H10.3333V13.3334H1V2.66675H14.3333V9.33342Z" fill="white"/>
<path d="M7.66667 11.1667H3.66667V10.1667H7.66667V11.1667Z" fill="white"/>
<path d="M9.66667 9.16675H3.66667V8.16675H9.66667V9.16675Z" fill="white"/>
<path d="M11.3333 4.66675C11.8856 4.66675 12.3333 5.11446 12.3333 5.66675C12.3333 6.21903 11.8856 6.66675 11.3333 6.66675C10.781 6.66675 10.3333 6.21903 10.3333 5.66675C10.3333 5.11446 10.781 4.66675 11.3333 4.66675Z" fill="white"/>
</svg>
