<svg width="16" height="16" viewBox="0 0 16 16" fill="none" xmlns="http://www.w3.org/2000/svg">
<g clip-path="url(#clip0_2513_9172)">
<path d="M3.5 10.0137C3.50013 10.0243 3.50042 10.0408 3.50098 10.0625C3.5021 10.1063 3.50416 10.171 3.50879 10.251C3.51808 10.4116 3.53661 10.6307 3.57324 10.8662C3.61016 11.1036 3.66381 11.3466 3.73926 11.5586C3.81677 11.7763 3.9054 11.9249 3.99023 12.0098C4.07507 12.0946 4.22375 12.1832 4.44141 12.2607C4.65337 12.3362 4.89645 12.3898 5.13379 12.4268C5.3693 12.4634 5.58836 12.4819 5.74902 12.4912C5.82899 12.4958 5.89373 12.4979 5.9375 12.499C5.95917 12.4996 5.97567 12.4999 5.98633 12.5H6V13.5H5.98633C5.97567 13.5001 5.95917 13.5004 5.9375 13.501C5.89373 13.5021 5.82899 13.5042 5.74902 13.5088C5.58836 13.5181 5.3693 13.5366 5.13379 13.5732C4.89645 13.6102 4.65337 13.6638 4.44141 13.7393C4.22375 13.8168 4.07507 13.9054 3.99023 13.9902C3.9054 14.0751 3.81677 14.2237 3.73926 14.4414C3.66381 14.6534 3.61016 14.8964 3.57324 15.1338C3.53661 15.3693 3.51808 15.5884 3.50879 15.749C3.50416 15.829 3.5021 15.8937 3.50098 15.9375C3.5006 15.9524 3.50016 15.9648 3.5 15.9746V16H2.5V15.9863C2.49987 15.9757 2.49958 15.9592 2.49902 15.9375C2.4979 15.8937 2.49584 15.829 2.49121 15.749C2.48192 15.5884 2.46339 15.3693 2.42676 15.1338C2.38984 14.8964 2.33619 14.6534 2.26074 14.4414C2.18323 14.2237 2.0946 14.0751 2.00977 13.9902C1.92493 13.9054 1.77625 13.8168 1.55859 13.7393C1.34663 13.6638 1.10355 13.6102 0.866211 13.5732C0.630697 13.5366 0.411638 13.5181 0.250977 13.5088C0.17101 13.5042 0.106271 13.5021 0.0625 13.501C0.0408323 13.5004 0.0243351 13.5001 0.0136719 13.5H0V12.5H0.0136719C0.0243351 12.4999 0.0408323 12.4996 0.0625 12.499C0.106271 12.4979 0.17101 12.4958 0.250977 12.4912C0.411638 12.4819 0.630697 12.4634 0.866211 12.4268C1.10355 12.3898 1.34663 12.3362 1.55859 12.2607C1.77625 12.1832 1.92493 12.0946 2.00977 12.0098C2.0946 11.9249 2.18323 11.7763 2.26074 11.5586C2.33619 11.3466 2.38984 11.1036 2.42676 10.8662C2.46339 10.6307 2.48192 10.4116 2.49121 10.251C2.49584 10.171 2.4979 10.1063 2.49902 10.0625C2.49958 10.0408 2.49987 10.0243 2.5 10.0137V10H3.5V10.0137ZM14.8799 3.91406C15.5916 5.10988 16 6.5074 16 8C16 12.4183 12.4183 16 8 16C6.83419 16 5.72643 15.751 4.72754 15.3027L5.12207 14.3828C5.99994 14.7793 6.97418 15 8 15C11.866 15 15 11.866 15 8C15 6.75358 14.6745 5.58308 14.1035 4.56934L13 5.5L14.8799 3.91406ZM3 12.3389C2.92215 12.4746 2.8294 12.6042 2.7168 12.7168C2.6042 12.8294 2.47464 12.9221 2.33887 13C2.47464 13.0779 2.6042 13.1706 2.7168 13.2832C2.82919 13.3956 2.92223 13.5247 3 13.6602C3.07777 13.5247 3.17081 13.3956 3.2832 13.2832C3.3956 13.1708 3.52466 13.0778 3.66016 13C3.52466 12.9222 3.3956 12.8292 3.2832 12.7168C3.1706 12.6042 3.07785 12.4746 3 12.3389ZM5.1709 9C5.58276 10.1651 6.69381 11 8 11C9.30617 11 10.4173 10.1652 10.8291 9H11.874C11.43 10.7252 9.8638 12 8 12C6.13616 12 4.57002 10.7252 4.12598 9H5.1709ZM8 0C9.57643 0 11.0464 0.455913 12.2852 1.24316L11.7656 2.09766C10.6784 1.40258 9.38615 1 8 1C4.13401 1 1 4.13401 1 8C1 9.01764 1.21693 9.98503 1.60742 10.8574L0.678711 11.2285C0.242617 10.241 0 9.14888 0 8C0 3.58172 3.58172 0 8 0ZM5.125 5.25C5.60825 5.25 6 5.64175 6 6.125C6 6.60825 5.60825 7 5.125 7C4.64175 7 4.25 6.60825 4.25 6.125C4.25 5.64175 4.64175 5.25 5.125 5.25ZM10.625 5.25C11.1082 5.25 11.5 5.64175 11.5 6.125C11.5 6.60825 11.1082 7 10.625 7C10.1418 7 9.75 6.60825 9.75 6.125C9.75 5.64175 10.1418 5.25 10.625 5.25ZM15 1H16V2H15V3H14V2H13V1H14V0H15V1Z" fill="#26171D"/>
</g>
<defs>
<clipPath id="clip0_2513_9172">
<rect width="16" height="16" fill="white"/>
</clipPath>
</defs>
</svg>
