<svg width="16" height="16" viewBox="0 0 16 16" fill="none" xmlns="http://www.w3.org/2000/svg">
<path d="M11.7324 4C13.3891 4 14.6627 5.03434 14.9541 6.54004H13.9727C13.639 5.51723 12.8675 4.88184 11.7324 4.88184C10.3367 4.882 9.2168 5.97733 9.2168 8C9.2168 10.0227 10.3368 11.1181 11.7939 11.1182C13.1245 11.1182 14.0531 10.2359 14.0801 8.83691H12.0088V8H15V8.83691C14.9998 10.7644 13.6652 12 11.7939 12C9.70787 11.9999 8.29688 10.4638 8.29688 8C8.29688 5.53625 9.7193 4.00015 11.7324 4ZM4.86523 4.10645L7.74902 11.8936H6.75195L5.96191 9.68848H2.78711L1.99707 11.8936H1L3.88379 4.10645H4.86523ZM4.34375 5.33887L3.08594 8.85156H5.66309L4.40527 5.33887H4.34375Z" fill="white"/>
</svg>
