<svg width="16" height="16" viewBox="0 0 16 16" fill="none" xmlns="http://www.w3.org/2000/svg">
<mask id="mask0_2500_22995" style="mask-type:alpha" maskUnits="userSpaceOnUse" x="0" y="0" width="16" height="16">
<rect width="16" height="16" fill="#D9D9D9"/>
</mask>
<g mask="url(#mask0_2500_22995)">
<path d="M3.10004 14.6666C2.50004 14.6666 2.0556 14.5444 1.76671 14.2999C1.47782 14.0555 1.33337 13.6888 1.33337 13.1999C1.33337 12.5555 1.6056 12.1444 2.15004 11.9666C2.69449 11.7888 3.33893 11.6999 4.08337 11.6999H4.43337V10.7666C4.43337 10.4333 4.42504 10.1444 4.40837 9.89992C4.39171 9.65547 4.3556 9.45547 4.30004 9.29992C4.24449 9.14436 4.1806 9.0277 4.10837 8.94992C4.03615 8.87214 3.94449 8.83325 3.83337 8.83325C3.73337 8.83325 3.64171 8.84992 3.55837 8.88325C3.47504 8.91658 3.4056 8.96103 3.35004 9.01659C3.3056 9.07214 3.27782 9.13047 3.26671 9.19159C3.2556 9.2527 3.26115 9.31658 3.28337 9.38325C3.35004 9.50547 3.42782 9.62492 3.51671 9.74158C3.6056 9.85825 3.65004 9.99436 3.65004 10.1499C3.65004 10.4277 3.55282 10.6638 3.35837 10.8583C3.16393 11.0527 2.92782 11.1499 2.65004 11.1499C2.37226 11.1499 2.13615 11.0527 1.94171 10.8583C1.74726 10.6638 1.65004 10.4277 1.65004 10.1499C1.65004 9.84992 1.71671 9.60547 1.85004 9.41658C1.98337 9.2277 2.16393 9.0777 2.39171 8.96658C2.61949 8.85547 2.88337 8.7777 3.18337 8.73325C3.48337 8.68881 3.8056 8.66658 4.15004 8.66658C5.09449 8.66658 5.75004 8.83603 6.11671 9.17492C6.48337 9.51381 6.66671 10.111 6.66671 10.9666V13.4166C6.66671 13.6277 6.69171 13.7833 6.74171 13.8833C6.79171 13.9833 6.87782 14.0333 7.00004 14.0333C7.13337 14.0333 7.24171 13.9333 7.32504 13.7333C7.40837 13.5333 7.46115 13.2221 7.48337 12.7999H7.66671C7.63337 13.4888 7.50282 13.9721 7.27504 14.2499C7.04726 14.5277 6.66671 14.6666 6.13337 14.6666C5.6556 14.6666 5.2806 14.5916 5.00837 14.4416C4.73615 14.2916 4.56115 14.0666 4.48337 13.7666C4.37226 14.0888 4.20837 14.3194 3.99171 14.4583C3.77504 14.5971 3.47782 14.6666 3.10004 14.6666ZM9.31671 14.6666C9.09449 14.6666 8.91393 14.5749 8.77504 14.3916C8.63615 14.2083 8.61115 14.011 8.70004 13.7999L10.4 9.31659C10.4778 9.1277 10.6 8.97214 10.7667 8.84992C10.9334 8.7277 11.1223 8.66658 11.3334 8.66658C11.5445 8.66658 11.7334 8.7277 11.9 8.84992C12.0667 8.97214 12.1889 9.1277 12.2667 9.31659L13.9667 13.7999C14.0556 14.011 14.0306 14.2083 13.8917 14.3916C13.7528 14.5749 13.5723 14.6666 13.35 14.6666C13.2167 14.6666 13.0945 14.6277 12.9834 14.5499C12.8723 14.4721 12.7889 14.3666 12.7334 14.2333L12.4 13.2666H10.2667L9.93337 14.2333C9.88893 14.3555 9.81115 14.4583 9.70004 14.5416C9.58893 14.6249 9.46115 14.6666 9.31671 14.6666ZM3.91671 14.1833C4.06115 14.1833 4.18337 14.0694 4.28337 13.8416C4.38337 13.6138 4.43337 13.3388 4.43337 13.0166V11.8999C4.14449 11.8999 3.93337 11.986 3.80004 12.1583C3.66671 12.3305 3.60004 12.611 3.60004 12.9999V13.1833C3.60004 13.5833 3.62226 13.8499 3.66671 13.9833C3.71115 14.1166 3.79449 14.1833 3.91671 14.1833ZM10.7 12.0999H11.9834L11.3334 10.1999L10.7 12.0999ZM10.0834 7.34992C9.55004 7.34992 9.12504 7.16381 8.80837 6.79158C8.49171 6.41936 8.33337 5.91658 8.33337 5.28325C8.33337 4.1277 8.69726 3.18325 9.42504 2.44992C10.1528 1.71659 11.0945 1.34992 12.25 1.34992C12.7389 1.34992 13.1223 1.39992 13.4 1.49992C13.6778 1.59992 13.8167 1.73325 13.8167 1.89992C13.8167 1.96659 13.8056 2.03325 13.7834 2.09992C13.7612 2.16659 13.7223 2.2277 13.6667 2.28325C13.6112 2.36103 13.5417 2.41659 13.4584 2.44992C13.375 2.48325 13.2889 2.48881 13.2 2.46659C13.0445 2.42214 12.8667 2.38325 12.6667 2.34992C12.4667 2.31659 12.2834 2.29992 12.1167 2.29992C11.3278 2.29992 10.6945 2.56659 10.2167 3.09992C9.73893 3.63325 9.50004 4.33881 9.50004 5.21659C9.50004 5.46103 9.54449 5.71659 9.63337 5.98325C9.72226 6.24992 9.92226 6.38325 10.2334 6.38325C10.3556 6.38325 10.475 6.35547 10.5917 6.29992C10.7084 6.24436 10.8112 6.16658 10.9 6.06659C11.0889 5.86658 11.2639 5.53325 11.425 5.06659C11.5862 4.59992 11.7334 4.03325 11.8667 3.36659C11.8889 3.22214 11.9473 3.11936 12.0417 3.05825C12.1362 2.99714 12.2667 2.96659 12.4334 2.96659C12.6334 2.96659 12.7862 3.01936 12.8917 3.12492C12.9973 3.23047 13.0278 3.36103 12.9834 3.51659C12.85 3.99436 12.7528 4.41103 12.6917 4.76659C12.6306 5.12214 12.6 5.44436 12.6 5.73325C12.6 5.95547 12.6306 6.11659 12.6917 6.21659C12.7528 6.31659 12.8445 6.36659 12.9667 6.36659C13.0889 6.36659 13.2084 6.32214 13.325 6.23325C13.4417 6.14436 13.6056 5.9777 13.8167 5.73325C13.8389 5.69992 13.9223 5.66103 14.0667 5.61659C14.1556 5.61659 14.2223 5.64992 14.2667 5.71659C14.3112 5.78325 14.3334 5.8777 14.3334 5.99992C14.3334 6.31103 14.1556 6.61103 13.8 6.89992C13.4445 7.18881 13.0723 7.33325 12.6834 7.33325C12.3945 7.33325 12.1473 7.25547 11.9417 7.09992C11.7362 6.94436 11.5945 6.72214 11.5167 6.43325C11.35 6.72214 11.1445 6.94714 10.9 7.10825C10.6556 7.26936 10.3834 7.34992 10.0834 7.34992ZM2.00004 7.33325V3.66659C2.00004 3.02214 2.22782 2.47214 2.68337 2.01659C3.13893 1.56103 3.68893 1.33325 4.33337 1.33325C4.97782 1.33325 5.52782 1.56103 5.98337 2.01659C6.43893 2.47214 6.66671 3.02214 6.66671 3.66659V7.33325H5.33337V5.99992H3.33337V7.33325H2.00004ZM3.33337 4.66658H5.33337V3.66659C5.33337 3.38881 5.23615 3.1527 5.04171 2.95825C4.84726 2.76381 4.61115 2.66659 4.33337 2.66659C4.0556 2.66659 3.81949 2.76381 3.62504 2.95825C3.4306 3.1527 3.33337 3.38881 3.33337 3.66659V4.66658Z" fill="white"/>
</g>
</svg>
