<svg width="16" height="16" viewBox="0 0 16 16" fill="none" xmlns="http://www.w3.org/2000/svg">
<mask id="mask0_2499_22227" style="mask-type:alpha" maskUnits="userSpaceOnUse" x="0" y="0" width="16" height="16">
<rect width="16" height="16" fill="#D9D9D9"/>
</mask>
<g mask="url(#mask0_2499_22227)">
<path d="M4.71666 11.4667C4.27221 11.8445 3.80833 12.014 3.32499 11.9751C2.84166 11.9362 2.42221 11.7667 2.06666 11.4667C1.7111 11.1667 1.47499 10.7806 1.35833 10.3084C1.24166 9.83618 1.33333 9.35007 1.63333 8.85007L2.99999 6.56673C2.69999 6.3334 2.4611 6.04101 2.28333 5.68957C2.10555 5.33801 2.01666 4.95818 2.01666 4.55007C2.01666 3.84418 2.26666 3.23995 2.76666 2.7374C3.26666 2.23473 3.87222 1.9834 4.58333 1.9834C5.29444 1.9834 5.89999 2.2334 6.39999 2.7334C6.89999 3.2334 7.14999 3.83895 7.14999 4.55007C7.14999 5.26118 6.89866 5.86673 6.39599 6.36673C5.89333 6.86673 5.2891 7.11673 4.58333 7.11673C4.46333 7.11673 4.34333 7.1084 4.22333 7.09173C4.10333 7.07507 3.98999 7.05007 3.88333 7.01673L2.48333 9.36673C2.32777 9.62229 2.27877 9.8729 2.33633 10.1186C2.39377 10.3641 2.51599 10.5641 2.70299 10.7186C2.88988 10.8729 3.10833 10.9584 3.35833 10.9751C3.60833 10.9917 3.84444 10.9056 4.06666 10.7167L11.2833 4.51673C11.7278 4.13895 12.1944 3.96673 12.6833 4.00007C13.1722 4.0334 13.5944 4.20007 13.95 4.50007C14.3055 4.80007 14.5417 5.18895 14.6583 5.66673C14.775 6.14451 14.6833 6.6334 14.3833 7.1334L13.0333 9.41673C13.3333 9.65007 13.5722 9.94245 13.75 10.2939C13.9278 10.6455 14.0167 11.0253 14.0167 11.4334C14.0167 12.1392 13.7637 12.7434 13.2577 13.2461C12.7515 13.7487 12.1432 14.0001 11.4327 14.0001C10.722 14.0001 10.1194 13.7487 9.62499 13.2461C9.13055 12.7434 8.88333 12.1392 8.88333 11.4334C8.88333 10.7276 9.13055 10.1234 9.62499 9.62073C10.1194 9.11807 10.7222 8.86673 11.4333 8.86673C11.5525 8.86673 11.6685 8.87229 11.7812 8.8834C11.8937 8.89451 12.0055 8.91673 12.1167 8.95007L13.5167 6.61673C13.6722 6.36118 13.7212 6.11057 13.6637 5.8649C13.6062 5.61934 13.484 5.41934 13.297 5.2649C13.1101 5.11057 12.8917 5.02507 12.6417 5.0084C12.3917 4.99173 12.1555 5.07784 11.9333 5.26673L4.71666 11.4667ZM5.69166 5.65573C5.99721 5.3484 6.14999 4.97895 6.14999 4.5474C6.14999 4.11584 5.99633 3.74729 5.68899 3.44173C5.38166 3.13618 5.01221 2.9834 4.58066 2.9834C4.1491 2.9834 3.78055 3.13706 3.47499 3.4444C3.16944 3.75173 3.01666 4.12118 3.01666 4.55273C3.01666 4.98429 3.17033 5.35284 3.47766 5.6584C3.78499 5.96395 4.15444 6.11673 4.58599 6.11673C5.01755 6.11673 5.3861 5.96307 5.69166 5.65573ZM12.5522 12.5391C12.8618 12.2317 13.0167 11.8623 13.0167 11.4307C13.0167 10.9992 12.8618 10.6306 12.5522 10.3251C12.2426 10.0195 11.8704 9.86673 11.4355 9.86673C11.0007 9.86673 10.6333 10.0204 10.3333 10.3277C10.0333 10.6351 9.88333 11.0045 9.88333 11.4361C9.88333 11.8676 10.0333 12.2362 10.3333 12.5417C10.6333 12.8473 11.0007 13.0001 11.4355 13.0001C11.8704 13.0001 12.2426 12.8464 12.5522 12.5391Z" fill="white"/>
</g>
</svg>
