<svg width="16" height="16" viewBox="0 0 16 16" fill="none" xmlns="http://www.w3.org/2000/svg">
<path d="M5.66699 10.1504C7.86743 10.1505 9.83301 11.6263 9.83301 13.6504H8.83301C8.83301 12.3575 7.51283 11.1505 5.66699 11.1504C3.82099 11.1504 2.5 12.3574 2.5 13.6504H1.5C1.5 11.6262 3.46643 10.1504 5.66699 10.1504ZM13 6.00977C13.0001 6.01827 13.0005 6.03211 13.001 6.0498C13.0019 6.08546 13.004 6.13854 13.0078 6.2041C13.0155 6.33613 13.0305 6.51605 13.0605 6.70898C13.0908 6.90366 13.1338 7.10048 13.1943 7.27051C13.257 7.44643 13.3254 7.55785 13.3838 7.61621C13.4422 7.67457 13.5536 7.74304 13.7295 7.80566C13.8995 7.86617 14.0963 7.90917 14.291 7.93945C14.4839 7.96946 14.6639 7.98455 14.7959 7.99219C14.8615 7.99598 14.9145 7.99811 14.9502 7.99902C14.9679 7.99948 14.9817 7.9999 14.9902 8H15V9H14.9902C14.9817 9.0001 14.9679 9.00052 14.9502 9.00098C14.9145 9.00189 14.8615 9.00402 14.7959 9.00781C14.6639 9.01545 14.4839 9.03054 14.291 9.06055C14.0963 9.09083 13.8995 9.13383 13.7295 9.19434C13.5536 9.25696 13.4422 9.32543 13.3838 9.38379C13.3254 9.44215 13.257 9.55357 13.1943 9.72949C13.1338 9.89952 13.0908 10.0963 13.0605 10.291C13.0305 10.4839 13.0155 10.6639 13.0078 10.7959C13.004 10.8615 13.0019 10.9145 13.001 10.9502C13.0007 10.9609 13.0001 10.9701 13 10.9775V11H12V10.9902C11.9999 10.9817 11.9995 10.9679 11.999 10.9502C11.9981 10.9145 11.996 10.8615 11.9922 10.7959C11.9845 10.6639 11.9695 10.4839 11.9395 10.291C11.9092 10.0963 11.8662 9.89952 11.8057 9.72949C11.743 9.55357 11.6746 9.44215 11.6162 9.38379C11.5578 9.32543 11.4464 9.25696 11.2705 9.19434C11.1005 9.13383 10.9037 9.09083 10.709 9.06055C10.5161 9.03054 10.3361 9.01545 10.2041 9.00781C10.1385 9.00402 10.0855 9.00189 10.0498 9.00098C10.0321 9.00052 10.0183 9.0001 10.0098 9H10V8H10.0098C10.0183 7.9999 10.0321 7.99948 10.0498 7.99902C10.0855 7.99811 10.1385 7.99598 10.2041 7.99219C10.3361 7.98455 10.5161 7.96946 10.709 7.93945C10.9037 7.90917 11.1005 7.86617 11.2705 7.80566C11.4464 7.74304 11.5578 7.67457 11.6162 7.61621C11.6746 7.55785 11.743 7.44643 11.8057 7.27051C11.8662 7.10048 11.9092 6.90366 11.9395 6.70898C11.9695 6.51605 11.9845 6.33613 11.9922 6.2041C11.996 6.13854 11.9981 6.08546 11.999 6.0498C11.9995 6.03211 11.9999 6.01827 12 6.00977V6H13V6.00977ZM5.73633 4.40039C6.39937 4.40039 7.03507 4.66397 7.50391 5.13281C7.97275 5.60165 8.23633 6.23735 8.23633 6.90039C8.23633 7.56343 7.97275 8.19913 7.50391 8.66797C7.03507 9.13681 6.39937 9.40039 5.73633 9.40039C5.07329 9.40039 4.43759 9.13681 3.96875 8.66797C3.49991 8.19913 3.23633 7.56343 3.23633 6.90039C3.23633 6.23735 3.49991 5.60165 3.96875 5.13281C4.43759 4.66397 5.07329 4.40039 5.73633 4.40039ZM12.5 8.10254C12.4476 8.18002 12.3908 8.25573 12.3232 8.32324C12.2557 8.39075 12.18 8.44759 12.1025 8.5C12.18 8.55241 12.2557 8.60925 12.3232 8.67676C12.3906 8.74407 12.4477 8.81925 12.5 8.89648C12.5523 8.81925 12.6094 8.74407 12.6768 8.67676C12.7441 8.60944 12.8192 8.5523 12.8965 8.5C12.8192 8.4477 12.7441 8.39056 12.6768 8.32324C12.6092 8.25573 12.5524 8.18002 12.5 8.10254ZM5.73633 5.40039C5.3385 5.40039 4.95709 5.55854 4.67578 5.83984C4.39448 6.12115 4.23633 6.50257 4.23633 6.90039C4.23633 7.29821 4.39448 7.67963 4.67578 7.96094C4.95709 8.24224 5.3385 8.40039 5.73633 8.40039C6.13415 8.40039 6.51557 8.24224 6.79688 7.96094C7.07818 7.67963 7.23633 7.29821 7.23633 6.90039C7.23633 6.50257 7.07818 6.12115 6.79688 5.83984C6.51557 5.55854 6.13415 5.40039 5.73633 5.40039ZM11 3H12V4H11V5H10V4H9V3H10V2H11V3Z" fill="#26171D"/>
</svg>
