<svg width="16" height="16" viewBox="0 0 16 16" fill="none" xmlns="http://www.w3.org/2000/svg">
<mask id="mask0_2513_7327" style="mask-type:alpha" maskUnits="userSpaceOnUse" x="0" y="0" width="16" height="16">
<rect width="16" height="16" fill="#D9D9D9"/>
</mask>
<g mask="url(#mask0_2513_7327)">
<path d="M10.0666 9.21683L9.09996 8.26683L8.14996 7.30016L4.44996 11.0002L6.36663 12.9168L10.0666 9.21683ZM8.86663 6.5835L9.81663 7.55016L10.7833 8.50016L14.3333 4.95016L12.4166 3.0335L8.86663 6.5835ZM1.99996 14.0002L3.99996 12.0002L3.36663 11.3668V10.6668L7.79996 6.2335L11.1333 9.56683L6.71663 13.9835H5.99996L5.29996 13.2835L4.58329 14.0002H1.99996ZM7.79996 6.2335L12.4666 1.56683L15.8 4.90016L11.1333 9.56683L7.79996 6.2335ZM10.2833 2.3335H4.66663V1.3335H11.2833L10.2833 2.3335ZM7.61663 5.00016H2.66663V4.00016H8.61663L7.61663 5.00016ZM4.94996 7.66683H0.666626V6.66683H5.94996L4.94996 7.66683Z" fill="#26171D"/>
</g>
</svg>
