<svg width="16" height="16" viewBox="0 0 16 16" fill="none" xmlns="http://www.w3.org/2000/svg">
<g clip-path="url(#clip0_2517_6184)">
<path d="M6 2H9.5V3H8.43066C8.21532 4.60117 7.48813 6.09873 6.34277 7.26172C6.48535 7.44345 6.63545 7.61298 6.79199 7.76953C7.54476 8.5223 8.40771 8.93102 9.27637 8.99121L10.6738 5H12.2148L16.0654 16H15.0068L13.9785 13.0625H8.91016L7.88184 16H6.82324L8.93652 9.96094C7.89418 9.82206 6.91084 9.30325 6.08496 8.47754C5.91285 8.30543 5.74942 8.12077 5.59375 7.92578C4.28585 8.93954 2.67242 9.5 1 9.5V8.5C2.46796 8.5 3.88332 8.00157 5.02441 7.10156C4.58332 6.36468 4.24056 5.52465 4.01465 4.62109L4.98535 4.37891C5.17138 5.12287 5.44161 5.80587 5.77734 6.40625C6.65477 5.45491 7.22456 4.2681 7.42188 3H0.5V2H5V0.5H6V2ZM9.26074 12.0625H13.6279L11.4443 5.82422L9.26074 12.0625Z" fill="#26171D"/>
</g>
<defs>
<clipPath id="clip0_2517_6184">
<rect width="16" height="16" fill="white"/>
</clipPath>
</defs>
</svg>
