<svg width="16" height="16" viewBox="0 0 16 16" fill="none" xmlns="http://www.w3.org/2000/svg">
<path d="M3.93359 9.83105V8.36133C3.93359 8.11068 3.96777 7.91016 4.03613 7.75977C4.10905 7.60938 4.20475 7.49089 4.32324 7.4043C4.44173 7.31315 4.56934 7.2334 4.70605 7.16504C4.94303 7.01465 5.1709 6.86881 5.38965 6.72754C5.61296 6.58171 5.8112 6.42676 5.98438 6.2627C6.16211 6.09408 6.30111 5.90039 6.40137 5.68164C6.50163 5.46289 6.55176 5.20768 6.55176 4.91602C6.55176 4.60612 6.47656 4.3418 6.32617 4.12305C6.18034 3.9043 5.97754 3.73796 5.71777 3.62402C5.45801 3.50553 5.16178 3.44629 4.8291 3.44629C4.28678 3.44629 3.85156 3.61491 3.52344 3.95215C3.19987 4.28483 3.01074 4.73372 2.95605 5.29883L1.5 5.01172C1.5638 4.47396 1.73698 3.99772 2.01953 3.58301C2.30664 3.16829 2.69173 2.84245 3.1748 2.60547C3.65788 2.36849 4.22526 2.25 4.87695 2.25C5.49674 2.25 6.0459 2.35482 6.52441 2.56445C7.00749 2.76953 7.38574 3.06803 7.65918 3.45996C7.93717 3.85189 8.07617 4.32357 8.07617 4.875C8.07617 5.27604 8.00553 5.63835 7.86426 5.96191C7.72754 6.28548 7.54753 6.57487 7.32422 6.83008C7.10091 7.08073 6.8571 7.30176 6.59277 7.49316C6.33301 7.68457 6.08008 7.84635 5.83398 7.97852C5.59245 8.10612 5.38509 8.20866 5.21191 8.28613V9.83105H3.93359ZM3.81055 11.0205H5.32129V12.4219H3.81055V11.0205Z" fill="black"/>
<path d="M7.68105 13.6182H7.94766C8.21654 13.6182 8.42617 13.5407 8.57656 13.3857C8.73151 13.2354 8.80898 13.0052 8.80898 12.6953V12.4219H8.1459V11.0273H9.69082V12.6611C9.69082 13.1852 9.5541 13.5954 9.28066 13.8916C9.00723 14.1924 8.56745 14.3428 7.96133 14.3428H7.68105V13.6182Z" fill="black"/>
<path d="M12.3667 9.72852L12.2436 7.75977V2.38672H13.5698V9.72852H12.3667ZM12.1479 11.0205H13.6587V12.4219H12.1479V11.0205Z" fill="black"/>
</svg>
