<svg width="16" height="16" viewBox="0 0 16 16" fill="none" xmlns="http://www.w3.org/2000/svg">
<mask id="mask0_2496_5039" style="mask-type:alpha" maskUnits="userSpaceOnUse" x="0" y="0" width="16" height="16">
<rect width="16" height="16" fill="#D9D9D9"/>
</mask>
<g mask="url(#mask0_2496_5039)">
<path d="M10.3917 7.427C10.775 7.045 10.9667 6.58111 10.9667 6.03533C10.9667 5.48956 10.7757 5.025 10.3937 4.64167C10.0117 4.25833 9.54782 4.06667 9.00204 4.06667C8.45626 4.06667 7.99171 4.25767 7.60837 4.63967C7.22504 5.02167 7.03337 5.48556 7.03337 6.03133C7.03337 6.57711 7.22437 7.04167 7.60637 7.425C7.98837 7.80833 8.45226 8 8.99804 8C9.54382 8 10.0084 7.809 10.3917 7.427ZM4.33337 11.6833C4.90004 10.9611 5.58893 10.3889 6.40004 9.96667C7.21115 9.54444 8.07782 9.33333 9.00004 9.33333C9.92226 9.33333 10.7889 9.54444 11.6 9.96667C12.4112 10.3889 13.1 10.9611 13.6667 11.6833V2.33333H4.33337V11.6833ZM3.33337 12.6667V1.33333H14.6667V12.6667H3.33337ZM1.33337 14.6667V4.16667H2.33337V13.6667H11.8334V14.6667H1.33337ZM8.31671 6.71667C8.12782 6.52778 8.03337 6.3 8.03337 6.03333C8.03337 5.76667 8.12782 5.53889 8.31671 5.35C8.5056 5.16111 8.73337 5.06667 9.00004 5.06667C9.26671 5.06667 9.49448 5.16111 9.68337 5.35C9.87226 5.53889 9.96671 5.76667 9.96671 6.03333C9.96671 6.3 9.87226 6.52778 9.68337 6.71667C9.49448 6.90556 9.26671 7 9.00004 7C8.73337 7 8.5056 6.90556 8.31671 6.71667ZM5.88337 11.6667H12.1167C11.7167 11.2333 11.2473 10.9028 10.7084 10.675C10.1695 10.4472 9.60004 10.3333 9.00004 10.3333C8.40004 10.3333 7.8306 10.4472 7.29171 10.675C6.75282 10.9028 6.28337 11.2333 5.88337 11.6667Z" fill="white"/>
</g>
</svg>
