<svg width="16" height="16" viewBox="0 0 16 16" fill="none" xmlns="http://www.w3.org/2000/svg">
<path d="M13.4443 1C14.3034 1 15 1.69655 15 2.55566V13.4443C15 14.3034 14.3034 15 13.4443 15H2.55566L2.39648 14.9922C1.61209 14.9125 1 14.2498 1 13.4443V2.55566C1 1.75025 1.61209 1.08747 2.39648 1.00781L2.55566 1H13.4443ZM2.55566 2C2.24884 2 2 2.24884 2 2.55566V13.4443C2 13.7512 2.24884 14 2.55566 14H3.2793L10.8809 5.66309L11.2471 5.26172L11.6162 5.66016L14 8.22656V2.55566C14 2.24884 13.7512 2 13.4443 2H2.55566ZM4.63184 14H13.4443C13.7512 14 14 13.7512 14 13.4443V9.69531L11.2529 6.7373L4.63184 14ZM5 3C6.10457 3 7 3.89543 7 5C7 6.10457 6.10457 7 5 7C3.89543 7 3 6.10457 3 5C3 3.89543 3.89543 3 5 3ZM5 4C4.44772 4 4 4.44772 4 5C4 5.55228 4.44772 6 5 6C5.55228 6 6 5.55228 6 5C6 4.44772 5.55228 4 5 4Z" fill="#583F4A"/>
</svg>
