<svg width="18" height="18" viewBox="0 0 18 18" fill="none" xmlns="http://www.w3.org/2000/svg">
<path d="M8.99951 12.6914L5.36279 16.3281L1.7251 12.6914L5.36279 9.05469L8.99951 12.6914ZM15.7505 15.8037H10.1255V10.1787H15.7505V15.8037ZM3.13916 12.6914L5.36279 14.9141L7.58545 12.6914L5.36279 10.4688L3.13916 12.6914ZM11.1255 14.8037H14.7505V11.1787H11.1255V14.8037ZM7.87549 7.875H2.25049V2.25H7.87549V7.875ZM13.438 4.5625H15.7505V5.5625H13.438V7.875H12.438V5.5625H10.1255V4.5625H12.438V2.25H13.438V4.5625ZM3.25049 6.875H6.87549V3.25H3.25049V6.875Z" fill="#26171D"/>
</svg>
