<svg width="16" height="16" viewBox="0 0 16 16" fill="none" xmlns="http://www.w3.org/2000/svg">
<path d="M7.99946 11.2808L4.76704 14.5142L1.53364 11.2808L4.76704 8.04834L7.99946 11.2808ZM14.0004 14.0483H9.00043V9.04834H14.0004V14.0483ZM2.9477 11.2808L4.76704 13.1001L6.5854 11.2808L4.76704 9.4624L2.9477 11.2808ZM10.0004 13.0483H13.0004V10.0483H10.0004V13.0483ZM7.00043 6.99951H2.00043V1.99951H7.00043V6.99951ZM12.0004 3.99951H14.0004V4.99951H12.0004V6.99951H11.0004V4.99951H9.00043V3.99951H11.0004V1.99951H12.0004V3.99951ZM3.00043 5.99951H6.00043V2.99951H3.00043V5.99951Z" fill="#26171D"/>
</svg>
