<svg width="16" height="16" viewBox="0 0 16 16" fill="none" xmlns="http://www.w3.org/2000/svg">
<g clip-path="url(#clip0_2231_2618)">
<path d="M15.248 11.4346L8.24805 15.4346L8 15.5762L7.75195 15.4346L0.751953 11.4346L1.24805 10.5654L8 14.4229L14.752 10.5654L15.248 11.4346ZM15.248 8.43457L8.24805 12.4346L8 12.5762L7.75195 12.4346L0.751953 8.43457L1.24805 7.56543L8 11.4229L14.752 7.56543L15.248 8.43457ZM8.24805 0.56543L15.248 4.56543L16.0078 5L15.248 5.43457L8.24805 9.43457L8 9.57617L7.75195 9.43457L0.751953 5.43457L-0.0078125 5L0.751953 4.56543L7.75195 0.56543L8 0.423828L8.24805 0.56543ZM2.00781 5L8 8.42285L13.9912 5L8 1.57617L2.00781 5Z" fill="#26171D"/>
</g>
<defs>
<clipPath id="clip0_2231_2618">
<rect width="16" height="16" fill="white"/>
</clipPath>
</defs>
</svg>
