<svg width="16" height="16" viewBox="0 0 16 16" fill="none" xmlns="http://www.w3.org/2000/svg">
<path d="M6.09082 5.5H4.18164C3.46144 5.50004 2.7763 5.77009 2.27539 6.24219C1.7754 6.7136 1.5 7.34677 1.5 8C1.5 8.65323 1.7754 9.2864 2.27539 9.75781C2.52313 9.9913 2.81911 10.1778 3.14648 10.3057C3.47393 10.4335 3.82567 10.5 4.18164 10.5H6.09082V11.5H4.18164C3.70215 11.5 3.22667 11.4109 2.78223 11.2373C2.33777 11.0637 1.93193 10.8088 1.58887 10.4854C0.895442 9.83155 0.5 8.93807 0.5 8C0.5 7.06193 0.895442 6.16845 1.58887 5.51465C2.28124 4.86188 3.21445 4.50004 4.18164 4.5H6.09082V5.5ZM11.8184 4.5C12.2979 4.50002 12.7733 4.58912 13.2178 4.7627C13.6622 4.93629 14.0681 5.19121 14.4111 5.51465C14.7542 5.83813 15.0284 6.22382 15.2158 6.65039C15.4033 7.07716 15.5 7.53615 15.5 8C15.5 8.46385 15.4033 8.92284 15.2158 9.34961C15.0284 9.77618 14.7542 10.1619 14.4111 10.4854C14.0681 10.8088 13.6622 11.0637 13.2178 11.2373C12.7733 11.4109 12.2979 11.5 11.8184 11.5H9.90918V10.5H11.8184C12.1743 10.5 12.5261 10.4335 12.8535 10.3057C13.1809 10.1778 13.4769 9.9913 13.7246 9.75781C13.9723 9.5243 14.1675 9.24839 14.2998 8.94727C14.4321 8.64608 14.5 8.32408 14.5 8C14.5 7.67592 14.4321 7.35392 14.2998 7.05273C14.1675 6.7516 13.9723 6.4757 13.7246 6.24219C13.4769 6.0087 13.1809 5.82219 12.8535 5.69434C12.5261 5.56649 12.1743 5.50002 11.8184 5.5H9.90918V4.5H11.8184ZM11 8.5H5V7.5H11V8.5Z" fill="#651A39"/>
</svg>
