<svg width="16" height="16" viewBox="0 0 16 16" fill="none" xmlns="http://www.w3.org/2000/svg">
<g clip-path="url(#clip0_2231_1944)">
<path d="M7 0.5C10.5899 0.5 13.5 3.41015 13.5 7C13.5 8.6149 12.9094 10.0908 11.9346 11.2275L15.3535 14.6465L14.6465 15.3535L11.2275 11.9346C10.0908 12.9094 8.6149 13.5 7 13.5V12.5C10.0376 12.5 12.5 10.0376 12.5 7C12.5 3.96243 10.0376 1.5 7 1.5C3.96243 1.5 1.5 3.96243 1.5 7H0.5C0.5 3.41015 3.41015 0.5 7 0.5ZM3.5 8.01367C3.50013 8.02433 3.50042 8.04083 3.50098 8.0625C3.5021 8.10627 3.50416 8.17101 3.50879 8.25098C3.51808 8.41164 3.53661 8.6307 3.57324 8.86621C3.61016 9.10355 3.66381 9.34663 3.73926 9.55859C3.81677 9.77625 3.9054 9.92493 3.99023 10.0098C4.07507 10.0946 4.22375 10.1832 4.44141 10.2607C4.65337 10.3362 4.89645 10.3898 5.13379 10.4268C5.3693 10.4634 5.58836 10.4819 5.74902 10.4912C5.82899 10.4958 5.89373 10.4979 5.9375 10.499C5.95917 10.4996 5.97567 10.4999 5.98633 10.5H6V11.5H5.98633C5.97567 11.5001 5.95917 11.5004 5.9375 11.501C5.89373 11.5021 5.82899 11.5042 5.74902 11.5088C5.58836 11.5181 5.3693 11.5366 5.13379 11.5732C4.89645 11.6102 4.65337 11.6638 4.44141 11.7393C4.22375 11.8168 4.07507 11.9054 3.99023 11.9902C3.9054 12.0751 3.81677 12.2237 3.73926 12.4414C3.66381 12.6534 3.61016 12.8964 3.57324 13.1338C3.53661 13.3693 3.51808 13.5884 3.50879 13.749C3.50416 13.829 3.5021 13.8937 3.50098 13.9375C3.5006 13.9524 3.50016 13.9648 3.5 13.9746V14H2.5V13.9863C2.49987 13.9757 2.49958 13.9592 2.49902 13.9375C2.4979 13.8937 2.49584 13.829 2.49121 13.749C2.48192 13.5884 2.46339 13.3693 2.42676 13.1338C2.38984 12.8964 2.33619 12.6534 2.26074 12.4414C2.18323 12.2237 2.0946 12.0751 2.00977 11.9902C1.92493 11.9054 1.77625 11.8168 1.55859 11.7393C1.34663 11.6638 1.10355 11.6102 0.866211 11.5732C0.630697 11.5366 0.411638 11.5181 0.250977 11.5088C0.17101 11.5042 0.106271 11.5021 0.0625 11.501C0.0408323 11.5004 0.0243351 11.5001 0.0136719 11.5H0V10.5H0.0136719C0.0243351 10.4999 0.0408323 10.4996 0.0625 10.499C0.106271 10.4979 0.17101 10.4958 0.250977 10.4912C0.411638 10.4819 0.630697 10.4634 0.866211 10.4268C1.10355 10.3898 1.34663 10.3362 1.55859 10.2607C1.77625 10.1832 1.92493 10.0946 2.00977 10.0098C2.0946 9.92493 2.18323 9.77625 2.26074 9.55859C2.33619 9.34663 2.38984 9.10355 2.42676 8.86621C2.46339 8.6307 2.48192 8.41164 2.49121 8.25098C2.49584 8.17101 2.4979 8.10627 2.49902 8.0625C2.49958 8.04083 2.49987 8.02433 2.5 8.01367V8H3.5V8.01367ZM3 10.3389C2.92215 10.4746 2.8294 10.6042 2.7168 10.7168C2.6042 10.8294 2.47464 10.9221 2.33887 11C2.47464 11.0779 2.6042 11.1706 2.7168 11.2832C2.82919 11.3956 2.92223 11.5247 3 11.6602C3.07777 11.5247 3.17081 11.3956 3.2832 11.2832C3.3956 11.1708 3.52466 11.0778 3.66016 11C3.52466 10.9222 3.3956 10.8292 3.2832 10.7168C3.1706 10.6042 3.07785 10.4746 3 10.3389ZM14.5 1.5H16V2.5H14.5V4H13.5V2.5H12V1.5H13.5V0H14.5V1.5Z" fill="white"/>
</g>
<defs>
<clipPath id="clip0_2231_1944">
<rect width="16" height="16" fill="white"/>
</clipPath>
</defs>
</svg>
