<svg width="16" height="16" viewBox="0 0 16 16" fill="none" xmlns="http://www.w3.org/2000/svg">
<path d="M3.5 9.01367C3.50013 9.02433 3.50042 9.04083 3.50098 9.0625C3.5021 9.10627 3.50416 9.17101 3.50879 9.25098C3.51808 9.41164 3.53661 9.6307 3.57324 9.86621C3.61016 10.1036 3.66381 10.3466 3.73926 10.5586C3.81677 10.7763 3.9054 10.9249 3.99023 11.0098C4.07507 11.0946 4.22375 11.1832 4.44141 11.2607C4.65337 11.3362 4.89645 11.3898 5.13379 11.4268C5.3693 11.4634 5.58836 11.4819 5.74902 11.4912C5.82899 11.4958 5.89373 11.4979 5.9375 11.499C5.95917 11.4996 5.97567 11.4999 5.98633 11.5H6V12.5H5.98633C5.97567 12.5001 5.95917 12.5004 5.9375 12.501C5.89373 12.5021 5.82899 12.5042 5.74902 12.5088C5.58836 12.5181 5.3693 12.5366 5.13379 12.5732C4.89645 12.6102 4.65337 12.6638 4.44141 12.7393C4.22375 12.8168 4.07507 12.9054 3.99023 12.9902C3.9054 13.0751 3.81677 13.2237 3.73926 13.4414C3.66381 13.6534 3.61016 13.8964 3.57324 14.1338C3.53661 14.3693 3.51808 14.5884 3.50879 14.749C3.50416 14.829 3.5021 14.8937 3.50098 14.9375C3.5006 14.9524 3.50016 14.9648 3.5 14.9746V15H2.5V14.9863C2.49987 14.9757 2.49958 14.9592 2.49902 14.9375C2.4979 14.8937 2.49584 14.829 2.49121 14.749C2.48192 14.5884 2.46339 14.3693 2.42676 14.1338C2.38984 13.8964 2.33619 13.6534 2.26074 13.4414C2.18323 13.2237 2.0946 13.0751 2.00977 12.9902C1.92493 12.9054 1.77625 12.8168 1.55859 12.7393C1.34663 12.6638 1.10355 12.6102 0.866211 12.5732C0.630697 12.5366 0.411638 12.5181 0.250977 12.5088C0.17101 12.5042 0.106271 12.5021 0.0625 12.501C0.0408323 12.5004 0.0243351 12.5001 0.0136719 12.5H0V11.5H0.0136719C0.0243351 11.4999 0.0408323 11.4996 0.0625 11.499C0.106271 11.4979 0.17101 11.4958 0.250977 11.4912C0.411638 11.4819 0.630697 11.4634 0.866211 11.4268C1.10355 11.3898 1.34663 11.3362 1.55859 11.2607C1.77625 11.1832 1.92493 11.0946 2.00977 11.0098C2.0946 10.9249 2.18323 10.7763 2.26074 10.5586C2.33619 10.3466 2.38984 10.1036 2.42676 9.86621C2.46339 9.6307 2.48192 9.41164 2.49121 9.25098C2.49584 9.17101 2.4979 9.10627 2.49902 9.0625C2.49958 9.04083 2.49987 9.02433 2.5 9.01367V9H3.5V9.01367ZM15 13.4443C15 14.3034 14.3034 15 13.4443 15H7V14H13.4443C13.7512 14 14 13.7512 14 13.4443V9.69629L11.2529 6.73828L7 11.4033V9.91895L11.2471 5.26172L14 8.22656V4H15V13.4443ZM3 11.3389C2.92215 11.4746 2.8294 11.6042 2.7168 11.7168C2.6042 11.8294 2.47464 11.9221 2.33887 12C2.47464 12.0779 2.6042 12.1706 2.7168 12.2832C2.82919 12.3956 2.92223 12.5247 3 12.6602C3.07777 12.5247 3.17081 12.3956 3.2832 12.2832C3.3956 12.1708 3.52466 12.0778 3.66016 12C3.52466 11.9222 3.3956 11.8292 3.2832 11.7168C3.1706 11.6042 3.07785 11.4746 3 11.3389ZM9 2H2.55566C2.24884 2 2 2.24884 2 2.55566V8H1V2.55566C1 1.69655 1.69655 1 2.55566 1H9V2ZM5 3C6.10457 3 7 3.89543 7 5C7 6.10457 6.10457 7 5 7C3.89543 7 3 6.10457 3 5C3 3.89543 3.89543 3 5 3ZM5 4C4.44772 4 4 4.44772 4 5C4 5.55229 4.44772 6 5 6C5.55229 6 6 5.55229 6 5C6 4.44772 5.55229 4 5 4ZM13 1H14V2H13V3H12V2H11V1H12V0H13V1Z" fill="white"/>
</svg>
