<svg width="18" height="18" viewBox="0 0 18 18" fill="none" xmlns="http://www.w3.org/2000/svg">
<path d="M9.5 0.0527344C9.50044 0.0890262 9.5021 0.143621 9.50391 0.213867C9.50752 0.354568 9.51474 0.558907 9.5293 0.810547C9.55848 1.31498 9.61622 2.006 9.73242 2.75293C9.84889 3.50153 10.022 4.29506 10.2764 5.00977C10.5329 5.73043 10.8596 6.33423 11.2627 6.7373C11.6658 7.14038 12.2696 7.46711 12.9902 7.72363C13.7049 7.97803 14.4985 8.15111 15.2471 8.26758C15.994 8.38378 16.685 8.44152 17.1895 8.4707C17.4411 8.48526 17.6454 8.49248 17.7861 8.49609C17.8564 8.4979 17.911 8.49956 17.9473 8.5H18V9.5H17.9473C17.911 9.50044 17.8564 9.5021 17.7861 9.50391C17.6454 9.50752 17.4411 9.51474 17.1895 9.5293C16.685 9.55848 15.994 9.61622 15.2471 9.73242C14.4985 9.84889 13.7049 10.022 12.9902 10.2764C12.2696 10.5329 11.6658 10.8596 11.2627 11.2627C10.8596 11.6658 10.5329 12.2696 10.2764 12.9902C10.022 13.7049 9.84889 14.4985 9.73242 15.2471C9.61622 15.994 9.55848 16.685 9.5293 17.1895C9.51474 17.4411 9.50752 17.6454 9.50391 17.7861C9.5021 17.8564 9.50044 17.911 9.5 17.9473V18H8.5V17.9473C8.49956 17.911 8.4979 17.8564 8.49609 17.7861C8.49248 17.6454 8.48526 17.4411 8.4707 17.1895C8.44152 16.685 8.38378 15.994 8.26758 15.2471C8.15111 14.4985 7.97803 13.7049 7.72363 12.9902C7.46711 12.2696 7.14038 11.6658 6.7373 11.2627C6.33423 10.8596 5.73043 10.5329 5.00977 10.2764C4.29506 10.022 3.50153 9.84889 2.75293 9.73242C2.006 9.61622 1.31498 9.55848 0.810547 9.5293C0.558907 9.51474 0.354568 9.50752 0.213867 9.50391C0.143621 9.5021 0.0890262 9.50044 0.0527344 9.5H0V8.5H0.0527344C0.0890262 8.49956 0.143621 8.4979 0.213867 8.49609C0.354568 8.49248 0.558907 8.48526 0.810547 8.4707C1.31498 8.44152 2.006 8.38378 2.75293 8.26758C3.50153 8.15111 4.29506 7.97803 5.00977 7.72363C5.73043 7.46711 6.33423 7.14038 6.7373 6.7373C7.14038 6.33423 7.46711 5.73043 7.72363 5.00977C7.97803 4.29506 8.15111 3.50153 8.26758 2.75293C8.38378 2.006 8.44152 1.31498 8.4707 0.810547C8.48526 0.558907 8.49248 0.354568 8.49609 0.213867C8.4979 0.143621 8.49956 0.0890262 8.5 0.0527344V0H9.5V0.0527344ZM9 4.20605C8.90718 4.59038 8.79765 4.97485 8.66602 5.34473C8.38558 6.13257 7.99585 6.89282 7.44434 7.44434C6.89282 7.99585 6.13257 8.38558 5.34473 8.66602C4.97485 8.79765 4.59038 8.90718 4.20605 9C4.59038 9.09282 4.97485 9.20235 5.34473 9.33398C6.13257 9.61442 6.89282 10.0041 7.44434 10.5557C7.99585 11.1072 8.38558 11.8674 8.66602 12.6553C8.79755 13.0249 8.90723 13.4089 9 13.793C9.09277 13.4089 9.20245 13.0249 9.33398 12.6553C9.61442 11.8674 10.0041 11.1072 10.5557 10.5557C11.1072 10.0041 11.8674 9.61442 12.6553 9.33398C13.0249 9.20245 13.4089 9.09277 13.793 9C13.4089 8.90723 13.0249 8.79755 12.6553 8.66602C11.8674 8.38558 11.1072 7.99585 10.5557 7.44434C10.0041 6.89282 9.61442 6.13257 9.33398 5.34473C9.20235 4.97485 9.09282 4.59038 9 4.20605ZM16.25 1.75H18V2.75H16.25V4.5H15.25V2.75H13.5V1.75H15.25V0H16.25V1.75Z" fill="#26171D"/>
</svg>
