<svg width="16" height="16" viewBox="0 0 16 16" fill="none" xmlns="http://www.w3.org/2000/svg">
<mask id="mask0_2377_1830" style="mask-type:alpha" maskUnits="userSpaceOnUse" x="0" y="0" width="16" height="16">
<rect width="16" height="16" fill="#D9D9D9"/>
</mask>
<g mask="url(#mask0_2377_1830)">
<path fill-rule="evenodd" clip-rule="evenodd" d="M11.417 6.39941C12.1212 6.39947 12.6698 6.5763 13.0449 6.94531C13.4206 7.315 13.5995 7.86188 13.5996 8.56641V11.7666H12.667V11.1875C12.4942 11.4098 12.2779 11.584 12.0176 11.707C11.7016 11.8564 11.3949 11.9326 11.0996 11.9326C10.5157 11.9326 10.028 11.7835 9.64551 11.4775C9.25959 11.1686 9.0665 10.7503 9.06641 10.2334C9.0665 9.68223 9.27654 9.23275 9.69531 8.89648C10.1115 8.56241 10.6498 8.39945 11.2998 8.39941C11.5944 8.39941 11.8707 8.42513 12.1279 8.47656C12.3213 8.51524 12.4959 8.56525 12.6504 8.62793V8.4834C12.6503 8.07953 12.5414 7.78276 12.3379 7.5791C12.1347 7.376 11.8329 7.26666 11.417 7.2666C11.1734 7.2666 10.9469 7.30879 10.7373 7.39258C10.5291 7.47584 10.3346 7.60683 10.1543 7.78711L10.0869 7.85449L9.41992 7.25195L9.49707 7.17773C9.77094 6.91531 10.0595 6.71851 10.3613 6.59082C10.665 6.46241 11.018 6.39941 11.417 6.39941ZM11.417 9.2334C10.963 9.2334 10.6226 9.32789 10.3848 9.50488C10.1508 9.67914 10.0333 9.91859 10.0332 10.2334C10.0333 10.4912 10.1336 10.6958 10.3369 10.8545C10.5449 11.0167 10.7973 11.0995 11.0996 11.0996C11.4689 11.0996 11.8238 10.9469 12.165 10.627C12.4846 10.3273 12.6501 9.95229 12.6641 9.49609C12.507 9.42386 12.3234 9.36168 12.1113 9.31348C11.8738 9.25949 11.6422 9.23342 11.417 9.2334Z" fill="#660607"/>
<path fill-rule="evenodd" clip-rule="evenodd" d="M6.16016 4.29883L8.86035 11.6318L8.91016 11.7666H7.8291L7.80566 11.7002L7.1123 9.75H4.1377L3.44434 11.7002L3.4209 11.7666H2.35645L2.40625 11.6318L5.08984 4.29883L5.11328 4.2334H6.13672L6.16016 4.29883ZM4.47461 8.81641H6.77441L5.61719 5.55273L4.47461 8.81641Z" fill="#660607"/>
</g>
</svg>
