<svg width="16" height="16" viewBox="0 0 16 16" fill="none" xmlns="http://www.w3.org/2000/svg">
<mask id="mask0_2231_925" style="mask-type:alpha" maskUnits="userSpaceOnUse" x="0" y="0" width="16" height="16">
<rect width="16" height="16" fill="#D9D9D9"/>
</mask>
<g mask="url(#mask0_2231_925)">
<path d="M14.5167 15.2167L12.5167 13.2333C12.3167 13.3778 12.0956 13.4861 11.8533 13.5583C11.6111 13.6306 11.36 13.6667 11.1 13.6667C10.3988 13.6667 9.79845 13.417 9.299 12.9177C8.79967 12.4182 8.55 11.8179 8.55 11.1167C8.55 10.4109 8.79967 9.80667 9.299 9.304C9.79845 8.80133 10.3988 8.55 11.1 8.55C11.8059 8.55 12.4101 8.80133 12.9127 9.304C13.4153 9.80667 13.6667 10.4109 13.6667 11.1167C13.6667 11.3722 13.6278 11.6194 13.55 11.8583C13.4722 12.0972 13.3667 12.3167 13.2333 12.5167L15.2167 14.5167L14.5167 15.2167ZM4.53334 13.6833C3.83212 13.6833 3.23178 13.4337 2.73234 12.9343C2.233 12.4349 1.98334 11.8346 1.98334 11.1333C1.98334 10.4111 2.233 9.8 2.73234 9.3C3.23178 8.8 3.83212 8.55 4.53334 8.55C5.25556 8.55 5.86667 8.8 6.36667 9.3C6.86667 9.8 7.11667 10.4111 7.11667 11.1333C7.11667 11.8346 6.86667 12.4349 6.36667 12.9343C5.86667 13.4337 5.25556 13.6833 4.53334 13.6833ZM4.53334 12.6833C4.97778 12.6833 5.35278 12.5316 5.65834 12.228C5.96389 11.9244 6.11667 11.5596 6.11667 11.1333C6.11667 10.6889 5.96389 10.3139 5.65834 10.0083C5.35278 9.70278 4.97778 9.55 4.53334 9.55C4.10712 9.55 3.74223 9.70278 3.43867 10.0083C3.13512 10.3139 2.98334 10.6889 2.98334 11.1333C2.98334 11.5596 3.13512 11.9244 3.43867 12.228C3.74223 12.5316 4.10712 12.6833 4.53334 12.6833ZM11.0833 12.6833C11.5278 12.6833 11.9028 12.5316 12.2083 12.228C12.5139 11.9244 12.6667 11.5596 12.6667 11.1333C12.6667 10.6889 12.5139 10.3139 12.2083 10.0083C11.9028 9.70278 11.5278 9.55 11.0833 9.55C10.6571 9.55 10.2922 9.70278 9.98867 10.0083C9.68512 10.3139 9.53334 10.6889 9.53334 11.1333C9.53334 11.5596 9.68512 11.9244 9.98867 12.228C10.2922 12.5316 10.6571 12.6833 11.0833 12.6833ZM4.53334 7.13333C3.83212 7.13333 3.23178 6.88367 2.73234 6.38433C2.233 5.88489 1.98334 5.28456 1.98334 4.58333C1.98334 3.86111 2.233 3.25 2.73234 2.75C3.23178 2.25 3.83212 2 4.53334 2C5.25556 2 5.86667 2.25 6.36667 2.75C6.86667 3.25 7.11667 3.86111 7.11667 4.58333C7.11667 5.28456 6.86667 5.88489 6.36667 6.38433C5.86667 6.88367 5.25556 7.13333 4.53334 7.13333ZM11.0833 7.13333C10.3821 7.13333 9.78178 6.88367 9.28234 6.38433C8.783 5.88489 8.53334 5.28456 8.53334 4.58333C8.53334 3.86111 8.783 3.25 9.28234 2.75C9.78178 2.25 10.3821 2 11.0833 2C11.8056 2 12.4167 2.25 12.9167 2.75C13.4167 3.25 13.6667 3.86111 13.6667 4.58333C13.6667 5.28456 13.4167 5.88489 12.9167 6.38433C12.4167 6.88367 11.8056 7.13333 11.0833 7.13333ZM4.53334 6.13333C4.97778 6.13333 5.35278 5.98156 5.65834 5.678C5.96389 5.37444 6.11667 5.00956 6.11667 4.58333C6.11667 4.13889 5.96389 3.76389 5.65834 3.45833C5.35278 3.15278 4.97778 3 4.53334 3C4.10712 3 3.74223 3.15278 3.43867 3.45833C3.13512 3.76389 2.98334 4.13889 2.98334 4.58333C2.98334 5.00956 3.13512 5.37444 3.43867 5.678C3.74223 5.98156 4.10712 6.13333 4.53334 6.13333ZM11.0833 6.13333C11.5278 6.13333 11.9028 5.98156 12.2083 5.678C12.5139 5.37444 12.6667 5.00956 12.6667 4.58333C12.6667 4.13889 12.5139 3.76389 12.2083 3.45833C11.9028 3.15278 11.5278 3 11.0833 3C10.6571 3 10.2922 3.15278 9.98867 3.45833C9.68512 3.76389 9.53334 4.13889 9.53334 4.58333C9.53334 5.00956 9.68512 5.37444 9.98867 5.678C10.2922 5.98156 10.6571 6.13333 11.0833 6.13333Z" fill="#26171D"/>
</g>
</svg>
