<svg width="16" height="16" viewBox="0 0 16 16" fill="none" xmlns="http://www.w3.org/2000/svg">
<mask id="mask0_2231_883" style="mask-type:alpha" maskUnits="userSpaceOnUse" x="0" y="0" width="16" height="16">
<rect width="16" height="16" fill="#D9D9D9"/>
</mask>
<g mask="url(#mask0_2231_883)">
<path d="M0.633301 13.3334V11.7667C0.633301 11.3778 0.733301 11.0251 0.933301 10.7084C1.1333 10.3917 1.41108 10.1556 1.76663 10.0001C2.57775 9.64451 3.3083 9.38895 3.9583 9.2334C4.6083 9.07784 5.27775 9.00007 5.96663 9.00007C6.65552 9.00007 7.32219 9.07784 7.96663 9.2334C8.61108 9.38895 9.33886 9.64451 10.15 10.0001C10.5055 10.1556 10.7861 10.3917 10.9916 10.7084C11.1972 11.0251 11.3 11.3778 11.3 11.7667V13.3334H0.633301ZM12.3 13.3334V11.7667C12.3 11.0667 12.1222 10.4917 11.7666 10.0417C11.4111 9.59173 10.9444 9.22784 10.3666 8.95007C11.1333 9.03895 11.8555 9.16951 12.5333 9.34173C13.2111 9.51395 13.7611 9.71118 14.1833 9.9334C14.55 10.1445 14.8389 10.4056 15.05 10.7167C15.2611 11.0278 15.3666 11.3778 15.3666 11.7667V13.3334H12.3ZM4.16663 7.2834C3.69997 6.81673 3.46663 6.21673 3.46663 5.4834C3.46663 4.75007 3.69997 4.15007 4.16663 3.6834C4.6333 3.21673 5.2333 2.9834 5.96663 2.9834C6.69997 2.9834 7.29997 3.21673 7.76663 3.6834C8.2333 4.15007 8.46663 4.75007 8.46663 5.4834C8.46663 6.21673 8.2333 6.81673 7.76663 7.2834C7.29997 7.75007 6.69997 7.9834 5.96663 7.9834C5.2333 7.9834 4.6333 7.75007 4.16663 7.2834ZM11.2666 7.2834C10.8 7.75007 10.2 7.9834 9.46663 7.9834C9.34441 7.9834 9.2083 7.97507 9.0583 7.9584C8.9083 7.94173 8.77219 7.91118 8.64997 7.86673C8.91663 7.58895 9.11941 7.24729 9.2583 6.84173C9.39719 6.43618 9.46663 5.9834 9.46663 5.4834C9.46663 4.9834 9.39719 4.54173 9.2583 4.1584C9.11941 3.77507 8.91663 3.42229 8.64997 3.10007C8.77219 3.06673 8.9083 3.03895 9.0583 3.01673C9.2083 2.99451 9.34441 2.9834 9.46663 2.9834C10.2 2.9834 10.8 3.21673 11.2666 3.6834C11.7333 4.15007 11.9666 4.75007 11.9666 5.4834C11.9666 6.21673 11.7333 6.81673 11.2666 7.2834ZM1.6333 12.3334H10.3V11.7667C10.3 11.589 10.2472 11.4167 10.1416 11.2501C10.0361 11.0834 9.90552 10.9667 9.74997 10.9001C8.94997 10.5445 8.27775 10.3056 7.7333 10.1834C7.18886 10.0612 6.59997 10.0001 5.96663 10.0001C5.3333 10.0001 4.74163 10.0612 4.19163 10.1834C3.64163 10.3056 2.96663 10.5445 2.16663 10.9001C2.01108 10.9667 1.8833 11.0834 1.7833 11.2501C1.6833 11.4167 1.6333 11.589 1.6333 11.7667V12.3334ZM7.04163 6.5584C7.32497 6.27507 7.46663 5.91673 7.46663 5.4834C7.46663 5.05007 7.32497 4.69173 7.04163 4.4084C6.7583 4.12507 6.39997 3.9834 5.96663 3.9834C5.5333 3.9834 5.17497 4.12507 4.89163 4.4084C4.6083 4.69173 4.46663 5.05007 4.46663 5.4834C4.46663 5.91673 4.6083 6.27507 4.89163 6.5584C5.17497 6.84173 5.5333 6.9834 5.96663 6.9834C6.39997 6.9834 6.7583 6.84173 7.04163 6.5584Z" fill="#651A39"/>
</g>
</svg>
