<svg width="16" height="16" viewBox="0 0 16 16" fill="none" xmlns="http://www.w3.org/2000/svg">
<mask id="mask0_2231_1033" style="mask-type:alpha" maskUnits="userSpaceOnUse" x="0" y="0" width="16" height="16">
<rect width="16" height="16" fill="#D9D9D9"/>
</mask>
<g mask="url(#mask0_2231_1033)">
<path d="M2.66675 14.6666V5.43329H4.83341V3.83329C4.83341 2.95718 5.14236 2.2104 5.76025 1.59296C6.37803 0.975404 7.12525 0.666626 8.00191 0.666626C8.87847 0.666626 9.62508 0.975404 10.2417 1.59296C10.8584 2.2104 11.1667 2.95718 11.1667 3.83329V5.43329H13.3334V14.6666H2.66675ZM3.66675 13.6666H12.3334V6.43329H3.66675V13.6666ZM8.90841 10.9661C9.15841 10.7213 9.28341 10.4271 9.28341 10.0833C9.28341 9.74996 9.15747 9.44718 8.90558 9.17496C8.65369 8.90274 8.35091 8.76663 7.99725 8.76663C7.64358 8.76663 7.34175 8.90274 7.09175 9.17496C6.84175 9.44718 6.71675 9.75274 6.71675 10.0916C6.71675 10.4305 6.84269 10.7222 7.09458 10.9666C7.34647 11.2111 7.64925 11.3333 8.00292 11.3333C8.35658 11.3333 8.65841 11.2109 8.90841 10.9661ZM5.83341 5.43329H10.1667V3.83329C10.1667 3.2314 9.9563 2.71985 9.53542 2.29863C9.11453 1.87729 8.60342 1.66663 8.00208 1.66663C7.40075 1.66663 6.88897 1.87729 6.46675 2.29863C6.04453 2.71985 5.83341 3.2314 5.83341 3.83329V5.43329Z" fill="#26171D"/>
</g>
</svg>
