<svg width="16" height="16" viewBox="0 0 16 16" fill="none" xmlns="http://www.w3.org/2000/svg">
<path d="M1 1L15 1V15L1 15V1ZM2.16667 2.05V3.8875L4.20833 3.8875V2.05L2.16667 2.05ZM2.16667 12.13V13.9675H4.20833V12.13L2.16667 12.13ZM5.35555 2.05V3.8875H7.39722V2.05L5.35555 2.05ZM5.35555 12.13V13.9675H7.39722V12.13H5.35555ZM8.56389 2.05V3.8875L10.6056 3.8875V2.05L8.56389 2.05ZM8.56389 12.13V13.9675L10.6056 13.9675V12.13H8.56389ZM11.7722 2.05V3.8875H13.8139V2.05L11.7722 2.05ZM11.7722 12.13V13.9675H13.8139V12.13H11.7722ZM2.16667 4.9375V11.0975L13.8139 11.0975V4.9375L2.16667 4.9375Z" fill="#1C1B1F"/>
</svg>
