<svg width="16" height="16" viewBox="0 0 16 16" fill="none" xmlns="http://www.w3.org/2000/svg">
<mask id="mask0_2124_3733" style="mask-type:alpha" maskUnits="userSpaceOnUse" x="0" y="0" width="16" height="16">
<rect width="16" height="16" fill="#D9D9D9"/>
</mask>
<g mask="url(#mask0_2124_3733)">
<path d="M6.86663 11.35L10.7 7.51662L10.0333 6.84996L6.88329 9.99996L5.21663 8.33329L4.53329 9.01662L6.86663 11.35ZM4.18329 13.3333C3.20551 13.3333 2.37496 12.9916 1.69163 12.3083C1.00829 11.625 0.666626 10.7944 0.666626 9.81662C0.666626 8.94996 0.944404 8.18884 1.49996 7.53329C2.05551 6.87773 2.76107 6.48329 3.61663 6.34996C3.83885 5.27218 4.36107 4.39162 5.18329 3.70829C6.00552 3.02496 6.95552 2.68329 8.03329 2.68329C9.27774 2.68329 10.3277 3.13607 11.1833 4.04162C12.0388 4.94718 12.4666 6.03329 12.4666 7.29996V7.69996C13.2666 7.67773 13.9444 7.93607 14.5 8.47496C15.0555 9.01384 15.3333 9.6944 15.3333 10.5166C15.3333 11.2833 15.0555 11.9444 14.5 12.5C13.9444 13.0555 13.2833 13.3333 12.5166 13.3333H4.18329ZM4.18329 12.3333H12.5166C13.0166 12.3333 13.4444 12.1555 13.8 11.8C14.1555 11.4444 14.3333 11.0166 14.3333 10.5166C14.3333 10.0166 14.1555 9.58884 13.8 9.23329C13.4444 8.87773 13.0166 8.69996 12.5166 8.69996H11.4666V7.29996C11.4666 6.28884 11.1277 5.43329 10.45 4.73329C9.77218 4.03329 8.9444 3.68329 7.96663 3.68329C6.98885 3.68329 6.15829 4.03329 5.47496 4.73329C4.79163 5.43329 4.44996 6.28884 4.44996 7.29996H4.13329C3.4444 7.29996 2.86107 7.54162 2.38329 8.02496C1.90551 8.50829 1.66663 9.10551 1.66663 9.81662C1.66663 10.5166 1.91107 11.1111 2.39996 11.6C2.88885 12.0888 3.48329 12.3333 4.18329 12.3333Z" fill="#3E8B6A"/>
</g>
</svg>
