<svg width="16" height="16" viewBox="0 0 16 16" fill="none" xmlns="http://www.w3.org/2000/svg">
<mask id="mask0_2231_1990" style="mask-type:alpha" maskUnits="userSpaceOnUse" x="0" y="0" width="16" height="16">
<rect width="16" height="16" fill="#D9D9D9"/>
</mask>
<g mask="url(#mask0_2231_1990)">
<path d="M3.10004 14.6666C2.50004 14.6666 2.0556 14.5444 1.76671 14.3C1.47782 14.0555 1.33337 13.6889 1.33337 13.2C1.33337 12.5555 1.6056 12.1444 2.15004 11.9666C2.69449 11.7889 3.33893 11.7 4.08337 11.7H4.43337V10.7666C4.43337 10.4333 4.42504 10.1444 4.40837 9.89998C4.39171 9.65553 4.3556 9.45553 4.30004 9.29998C4.24449 9.14442 4.1806 9.02776 4.10837 8.94998C4.03615 8.8722 3.94449 8.83331 3.83337 8.83331C3.73337 8.83331 3.64171 8.84998 3.55837 8.88331C3.47504 8.91665 3.4056 8.96109 3.35004 9.01665C3.3056 9.0722 3.27782 9.13054 3.26671 9.19165C3.2556 9.25276 3.26115 9.31665 3.28337 9.38331C3.35004 9.50553 3.42782 9.62498 3.51671 9.74165C3.6056 9.85831 3.65004 9.99442 3.65004 10.15C3.65004 10.4278 3.55282 10.6639 3.35837 10.8583C3.16393 11.0528 2.92782 11.15 2.65004 11.15C2.37226 11.15 2.13615 11.0528 1.94171 10.8583C1.74726 10.6639 1.65004 10.4278 1.65004 10.15C1.65004 9.84998 1.71671 9.60553 1.85004 9.41665C1.98337 9.22776 2.16393 9.07776 2.39171 8.96665C2.61949 8.85553 2.88337 8.77776 3.18337 8.73331C3.48337 8.68887 3.8056 8.66665 4.15004 8.66665C5.09449 8.66665 5.75004 8.83609 6.11671 9.17498C6.48337 9.51387 6.66671 10.1111 6.66671 10.9666V13.4166C6.66671 13.6278 6.69171 13.7833 6.74171 13.8833C6.79171 13.9833 6.87782 14.0333 7.00004 14.0333C7.13337 14.0333 7.24171 13.9333 7.32504 13.7333C7.40837 13.5333 7.46115 13.2222 7.48337 12.8H7.66671C7.63337 13.4889 7.50282 13.9722 7.27504 14.25C7.04726 14.5278 6.66671 14.6666 6.13337 14.6666C5.6556 14.6666 5.2806 14.5916 5.00837 14.4416C4.73615 14.2916 4.56115 14.0666 4.48337 13.7666C4.37226 14.0889 4.20837 14.3194 3.99171 14.4583C3.77504 14.5972 3.47782 14.6666 3.10004 14.6666ZM9.31671 14.6666C9.09449 14.6666 8.91393 14.575 8.77504 14.3916C8.63615 14.2083 8.61115 14.0111 8.70004 13.8L10.4 9.31665C10.4778 9.12776 10.6 8.9722 10.7667 8.84998C10.9334 8.72776 11.1223 8.66665 11.3334 8.66665C11.5445 8.66665 11.7334 8.72776 11.9 8.84998C12.0667 8.9722 12.1889 9.12776 12.2667 9.31665L13.9667 13.8C14.0556 14.0111 14.0306 14.2083 13.8917 14.3916C13.7528 14.575 13.5723 14.6666 13.35 14.6666C13.2167 14.6666 13.0945 14.6278 12.9834 14.55C12.8723 14.4722 12.7889 14.3666 12.7334 14.2333L12.4 13.2666H10.2667L9.93337 14.2333C9.88893 14.3555 9.81115 14.4583 9.70004 14.5416C9.58893 14.625 9.46115 14.6666 9.31671 14.6666ZM3.91671 14.1833C4.06115 14.1833 4.18337 14.0694 4.28337 13.8416C4.38337 13.6139 4.43337 13.3389 4.43337 13.0166V11.9C4.14449 11.9 3.93337 11.9861 3.80004 12.1583C3.66671 12.3305 3.60004 12.6111 3.60004 13V13.1833C3.60004 13.5833 3.62226 13.85 3.66671 13.9833C3.71115 14.1166 3.79449 14.1833 3.91671 14.1833ZM10.7 12.1H11.9834L11.3334 10.2L10.7 12.1ZM10.0834 7.34998C9.55004 7.34998 9.12504 7.16387 8.80837 6.79165C8.49171 6.41942 8.33337 5.91665 8.33337 5.28331C8.33337 4.12776 8.69726 3.18331 9.42504 2.44998C10.1528 1.71665 11.0945 1.34998 12.25 1.34998C12.7389 1.34998 13.1223 1.39998 13.4 1.49998C13.6778 1.59998 13.8167 1.73331 13.8167 1.89998C13.8167 1.96665 13.8056 2.03331 13.7834 2.09998C13.7612 2.16665 13.7223 2.22776 13.6667 2.28331C13.6112 2.36109 13.5417 2.41665 13.4584 2.44998C13.375 2.48331 13.2889 2.48887 13.2 2.46665C13.0445 2.4222 12.8667 2.38331 12.6667 2.34998C12.4667 2.31665 12.2834 2.29998 12.1167 2.29998C11.3278 2.29998 10.6945 2.56665 10.2167 3.09998C9.73893 3.63331 9.50004 4.33887 9.50004 5.21665C9.50004 5.46109 9.54449 5.71665 9.63337 5.98331C9.72226 6.24998 9.92226 6.38331 10.2334 6.38331C10.3556 6.38331 10.475 6.35554 10.5917 6.29998C10.7084 6.24442 10.8112 6.16665 10.9 6.06665C11.0889 5.86665 11.2639 5.53331 11.425 5.06665C11.5862 4.59998 11.7334 4.03331 11.8667 3.36665C11.8889 3.2222 11.9473 3.11942 12.0417 3.05831C12.1362 2.9972 12.2667 2.96665 12.4334 2.96665C12.6334 2.96665 12.7862 3.01942 12.8917 3.12498C12.9973 3.23054 13.0278 3.36109 12.9834 3.51665C12.85 3.99442 12.7528 4.41109 12.6917 4.76665C12.6306 5.1222 12.6 5.44442 12.6 5.73331C12.6 5.95553 12.6306 6.11665 12.6917 6.21665C12.7528 6.31665 12.8445 6.36665 12.9667 6.36665C13.0889 6.36665 13.2084 6.3222 13.325 6.23331C13.4417 6.14442 13.6056 5.97776 13.8167 5.73331C13.8389 5.69998 13.9223 5.66109 14.0667 5.61665C14.1556 5.61665 14.2223 5.64998 14.2667 5.71665C14.3112 5.78331 14.3334 5.87776 14.3334 5.99998C14.3334 6.31109 14.1556 6.61109 13.8 6.89998C13.4445 7.18887 13.0723 7.33331 12.6834 7.33331C12.3945 7.33331 12.1473 7.25554 11.9417 7.09998C11.7362 6.94442 11.5945 6.7222 11.5167 6.43331C11.35 6.7222 11.1445 6.9472 10.9 7.10831C10.6556 7.26942 10.3834 7.34998 10.0834 7.34998ZM2.00004 7.33331V3.66665C2.00004 3.0222 2.22782 2.4722 2.68337 2.01665C3.13893 1.56109 3.68893 1.33331 4.33337 1.33331C4.97782 1.33331 5.52782 1.56109 5.98337 2.01665C6.43893 2.4722 6.66671 3.0222 6.66671 3.66665V7.33331H5.33337V5.99998H3.33337V7.33331H2.00004ZM3.33337 4.66665H5.33337V3.66665C5.33337 3.38887 5.23615 3.15276 5.04171 2.95831C4.84726 2.76387 4.61115 2.66665 4.33337 2.66665C4.0556 2.66665 3.81949 2.76387 3.62504 2.95831C3.4306 3.15276 3.33337 3.38887 3.33337 3.66665V4.66665Z" fill="#711517"/>
</g>
</svg>
