<svg width="16" height="16" viewBox="0 0 16 16" fill="none" xmlns="http://www.w3.org/2000/svg">
<path d="M6.25 14L6.46667 12.6333H8.01667L9.5 3.36667H7.31667L6.76667 6.7H5.35L6.11667 2H14.75L13.9833 6.7H12.5667L13.1 3.36667H10.9167L9.43333 12.6333H10.9833L10.7667 14H6.25ZM2.56667 4.33333L2.73333 3.33333H4.88333L4.71667 4.33333H2.56667ZM2.13333 7.08333L2.3 6.08333H4.45L4.28333 7.08333H2.13333ZM1.25 12.5833L1.41667 11.5833H5.23333L5.08333 12.5833H1.25ZM1.7 9.83333L1.86667 8.83333H5.68333L5.51667 9.83333H1.7Z" fill="black"/>
</svg>
