<svg width="16" height="16" viewBox="0 0 16 16" fill="none" xmlns="http://www.w3.org/2000/svg">
<mask id="mask0_2346_15391" style="mask-type:alpha" maskUnits="userSpaceOnUse" x="0" y="0" width="16" height="16">
<rect width="16" height="16" fill="#D9D9D9"/>
</mask>
<g mask="url(#mask0_2346_15391)">
<path d="M5.94998 7.45004L7.44998 5.95004L6.19998 4.70004L5.39998 5.50004L4.69998 4.80004L5.49998 4.00004L4.24998 2.76671L2.74998 4.26671L5.94998 7.45004ZM11.7166 13.25L13.2166 11.7334L11.9666 10.4834L11.1666 11.2834L10.4666 10.5834L11.2666 9.78337L10.0333 8.55004L8.53331 10.05L11.7166 13.25ZM4.59998 14H1.99998V11.4L5.23331 8.16671L1.33331 4.26671L4.23331 1.33337L8.16665 5.25004L11.8333 1.58337L14.4166 4.16671L10.75 7.83337L14.6666 11.75L11.75 14.65L7.84998 10.75L4.59998 14ZM2.99998 13H4.16665L10.7166 6.43337L9.54998 5.26671L2.99998 11.8334V13Z" fill="#390A1A"/>
</g>
</svg>
