<svg width="16" height="16" viewBox="0 0 16 16" fill="none" xmlns="http://www.w3.org/2000/svg">
<path d="M13.4443 1L13.5986 1.00781C13.9546 1.04326 14.2888 1.20091 14.5439 1.45605L14.6475 1.56934C14.8744 1.8462 15 2.19452 15 2.55566V15L11.8887 11.8887H2.55566C2.19448 11.8887 1.84621 11.7632 1.56934 11.5361L1.45605 11.4336C1.16433 11.1419 1 10.7456 1 10.333V2.55566C1 2.14311 1.16433 1.74778 1.45605 1.45605C1.74778 1.16433 2.14311 1 2.55566 1H13.4443ZM2.55566 2C2.40832 2 2.26727 2.0589 2.16309 2.16309C2.0589 2.26727 2 2.40832 2 2.55566V10.333C2 10.4803 2.0589 10.6224 2.16309 10.7266C2.26724 10.8305 2.4085 10.8887 2.55566 10.8887H12.3027L14 12.5859V2.55566C14 2.40832 13.9411 2.26727 13.8369 2.16309C13.7327 2.0589 13.5917 2 13.4443 2H2.55566Z" fill="#26171D"/>
</svg>
