<svg width="18" height="18" viewBox="0 0 18 18" fill="none" xmlns="http://www.w3.org/2000/svg">
<path d="M12.375 3.375H11.375V1H1V8.00879L3.375 6.10938L5.625 7.90918V5.625H18V18H5.625V9.19043L3.375 7.39062L1 9.29004V11.375H3.375V12.375H0V0H12.375V3.375ZM6.625 17H17V6.625H6.625V17ZM14.625 11.8125L10.125 14.625V9L14.625 11.8125ZM3.51562 2.25C4.21461 2.25 4.78125 2.81664 4.78125 3.51562C4.78125 4.21461 4.21461 4.78125 3.51562 4.78125C2.81664 4.78125 2.25 4.21461 2.25 3.51562C2.25 2.81664 2.81664 2.25 3.51562 2.25Z" fill="#26171D"/>
</svg>
