<svg width="16" height="16" viewBox="0 0 16 16" fill="none" xmlns="http://www.w3.org/2000/svg">
<mask id="mask0_2231_619" style="mask-type:alpha" maskUnits="userSpaceOnUse" x="0" y="0" width="16" height="16">
<rect width="16" height="16" fill="#D9D9D9"/>
</mask>
<g mask="url(#mask0_2231_619)">
<path d="M8 8C7.43333 8 6.95833 7.80833 6.575 7.425C6.19167 7.04167 6 6.56667 6 6C6 5.44444 6.19167 4.97222 6.575 4.58333C6.95833 4.19444 7.43333 4 8 4C8.55556 4 9.02778 4.19444 9.41667 4.58333C9.80556 4.97222 10 5.44444 10 6C10 6.56667 9.80556 7.04167 9.41667 7.425C9.02778 7.80833 8.55556 8 8 8ZM7.99417 7C8.27583 7 8.51389 6.90472 8.70833 6.71417C8.90278 6.52361 9 6.2875 9 6.00583C9 5.72417 8.90361 5.48611 8.71083 5.29167C8.51806 5.09722 8.27917 5 7.99417 5C7.70917 5 7.47222 5.09639 7.28333 5.28917C7.09444 5.48194 7 5.72083 7 6.00583C7 6.29083 7.09528 6.52778 7.28583 6.71667C7.47639 6.90556 7.7125 7 7.99417 7ZM4 12V10.7333C4 10.4333 4.09722 10.1694 4.29167 9.94167C4.48611 9.71389 4.72222 9.52778 5 9.38333C5.46667 9.13889 5.94967 8.95833 6.449 8.84167C6.94844 8.725 7.46511 8.66667 7.999 8.66667C8.533 8.66667 9.05 8.725 9.55 8.84167C10.05 8.95833 10.5333 9.13889 11 9.38333C11.2778 9.52778 11.5139 9.71389 11.7083 9.94167C11.9028 10.1694 12 10.4333 12 10.7333V12H4ZM6.45 9.88333C5.95 10.0278 5.46667 10.2444 5 10.5333V11H11V10.5333C10.5333 10.2444 10.05 10.0278 9.55 9.88333C9.05 9.73889 8.53333 9.66667 8 9.66667C7.46667 9.66667 6.95 9.73889 6.45 9.88333Z" fill="#4C343E"/>
<path d="M4.75 14V13H5.75V14H4.75ZM2 3V2H3V3H2ZM4.75 3V2H5.75V3H4.75ZM7.5 14V13H8.5V14H7.5ZM7.5 3V2H8.5V3H7.5ZM10.25 3V2H11.25V3H10.25ZM10.25 14V13H11.25V14H10.25ZM13 3V2H14V3H13ZM2 14V13H3V14H2ZM2 11.25V10.25H3V11.25H2ZM2 8.5V7.5H3V8.5H2ZM2 5.75V4.75H3V5.75H2ZM13 14V13H14V14H13ZM13 11.25V10.25H14V11.25H13ZM13 8.5V7.5H14V8.5H13ZM13 5.75V4.75H14V5.75H13Z" fill="#4C343E"/>
</g>
</svg>
