<svg width="16" height="16" viewBox="0 0 16 16" fill="none" xmlns="http://www.w3.org/2000/svg">
<path d="M10.2148 0.5C11.0598 0.50004 11.8688 0.84091 12.4639 1.44531C13.0587 2.04948 13.3916 2.86764 13.3916 3.71875C13.3916 4.56965 13.0585 5.38711 12.4639 5.99121V5.99219L6.31055 12.2344C5.96644 12.5837 5.49776 12.7812 5.00781 12.7812C4.51805 12.7811 4.05005 12.5836 3.70605 12.2344C3.36218 11.8851 3.16992 11.4125 3.16992 10.9219C3.16999 10.4313 3.36225 9.95955 3.70605 9.61035L9.38379 3.84961L9.74023 4.20117L10.0957 4.55176L4.41797 10.3115C4.25994 10.472 4.16999 10.6916 4.16992 10.9219C4.16992 11.1521 4.26004 11.3717 4.41797 11.5322C4.5757 11.6924 4.78816 11.7811 5.00781 11.7812C5.22761 11.7812 5.4408 11.6925 5.59863 11.5322L11.751 5.29004L11.8965 5.12793C12.2148 4.73338 12.3916 4.23572 12.3916 3.71875C12.3916 3.12794 12.1599 2.56293 11.751 2.14746C11.3422 1.73228 10.7895 1.50004 10.2148 1.5C9.6401 1.5 9.08753 1.73224 8.67871 2.14746L2.53223 8.38965C1.87229 9.05997 1.50007 9.97063 1.5 10.9219C1.5 11.8733 1.87217 12.7847 2.53223 13.4551C3.19195 14.1251 4.08512 14.4999 5.01465 14.5C5.94433 14.5 6.83825 14.1252 7.49805 13.4551L13.6436 7.21191L14 7.56348L14.3564 7.91406L8.20996 14.1562C7.36387 15.0156 6.2146 15.5 5.01465 15.5C3.81478 15.4999 2.66536 15.0155 1.81934 14.1562C0.973654 13.2972 0.5 12.1334 0.5 10.9219C0.500073 9.71034 0.973568 8.54652 1.81934 7.6875L7.96582 1.44531C8.56092 0.840941 9.36987 0.5 10.2148 0.5Z" fill="#26171D"/>
</svg>
