<svg width="16" height="16" viewBox="0 0 16 16" fill="none" xmlns="http://www.w3.org/2000/svg">
<path d="M14.5 15H5.5V14H14.5V15ZM12.8896 0.5C13.1667 0.500045 13.4413 0.555105 13.6973 0.661133C13.9532 0.767202 14.1859 0.922261 14.3818 1.11816C14.5777 1.31407 14.7328 1.5468 14.8389 1.80273C14.9449 2.05871 15 2.33329 15 2.61035C15 3.17014 14.7777 3.70768 14.3818 4.10352L4.79297 13.6924L4.6582 13.7256L1.62109 14.4854L0.8125 14.6875L1.01465 13.8789L1.77441 10.8418L1.80762 10.707L11.3965 1.11816C11.5925 0.922169 11.826 0.767205 12.082 0.661133C12.338 0.555121 12.6125 0.5 12.8896 0.5ZM2.71094 11.2197L2.1875 13.3135L4.28125 12.79L11.9756 5.09473L10.4209 3.50684L2.71094 11.2197ZM12.8896 1.5C12.7438 1.5 12.5986 1.52914 12.4639 1.58496C12.3293 1.64077 12.2065 1.72218 12.1035 1.8252L11.1279 2.7998L12.6816 4.38867L13.6748 3.39648C13.8831 3.18819 14 2.90493 14 2.61035C14 2.46461 13.9708 2.3202 13.915 2.18555C13.8592 2.05088 13.7779 1.92827 13.6748 1.8252C13.5717 1.72212 13.4491 1.64078 13.3145 1.58496C13.1798 1.52919 13.0354 1.50004 12.8896 1.5Z" fill="#26171D"/>
</svg>
