<svg width="16" height="16" viewBox="0 0 16 16" fill="none" xmlns="http://www.w3.org/2000/svg">
<path d="M15 15H1V14H15V15ZM15 11H1V10H15V11ZM3.26855 2.40137C2.75195 2.4987 2.38835 2.87305 2.17871 3.52441C2.07399 3.8462 2.02148 4.16421 2.02148 4.47852V4.58008C2.02892 4.60283 2.03651 4.65879 2.04395 4.74805H4.26855V7.19629H0.875977V4.93945C0.875977 3.83143 1.09737 2.97786 1.53906 2.37891C1.98079 1.77995 2.55729 1.43555 3.26855 1.3457V2.40137ZM8.05273 2.40137C7.64099 2.46877 7.32648 2.70087 7.10938 3.09766C6.89987 3.49438 6.79492 3.95134 6.79492 4.46777V4.60254C6.80241 4.64733 6.81418 4.69582 6.8291 4.74805H9.05273V7.19629H5.64941V4.93945C5.64941 4.04866 5.83672 3.25479 6.21094 2.55859C6.58528 1.85483 7.19925 1.45053 8.05273 1.3457V2.40137ZM15 7H11V6H15V7ZM15 3H11V2H15V3Z" fill="#26171D"/>
</svg>
