<svg width="16" height="16" viewBox="0 0 16 16" fill="none" xmlns="http://www.w3.org/2000/svg">
<mask id="mask0_2705_14423" style="mask-type:alpha" maskUnits="userSpaceOnUse" x="0" y="0" width="16" height="16">
<rect width="16" height="16" fill="#D9D9D9"/>
</mask>
<g mask="url(#mask0_2705_14423)">
<path d="M5.39992 14.1417C4.58881 13.7917 3.88325 13.3167 3.28325 12.7167C2.68325 12.1167 2.20825 11.4112 1.85825 10.6C1.50825 9.78893 1.33325 8.92226 1.33325 8.00004C1.33325 7.07782 1.50825 6.21115 1.85825 5.40004C2.20825 4.58893 2.68325 3.88337 3.28325 3.28337C3.88325 2.68337 4.58881 2.20837 5.39992 1.85837C6.21103 1.50837 7.0777 1.33337 7.99992 1.33337C8.92214 1.33337 9.78881 1.50837 10.5999 1.85837C11.411 2.20837 12.1166 2.68337 12.7166 3.28337C13.3166 3.88337 13.7916 4.58893 14.1416 5.40004C14.4916 6.21115 14.6666 7.07782 14.6666 8.00004C14.6666 8.92226 14.4916 9.78893 14.1416 10.6C13.7916 11.4112 13.3166 12.1167 12.7166 12.7167C12.1166 13.3167 11.411 13.7917 10.5999 14.1417C9.78881 14.4917 8.92214 14.6667 7.99992 14.6667C7.0777 14.6667 6.21103 14.4917 5.39992 14.1417ZM7.99992 13.6667C8.69992 13.6667 9.35825 13.5528 9.97492 13.325C10.5916 13.0973 11.1499 12.7723 11.6499 12.35L10.4499 11.1667C10.1055 11.4223 9.7277 11.625 9.31659 11.775C8.90547 11.925 8.46658 12 7.99992 12C6.88881 12 5.94436 11.6112 5.16659 10.8334C4.38881 10.0556 3.99992 9.11115 3.99992 8.00004C3.99992 6.88893 4.38881 5.94448 5.16659 5.16671C5.94436 4.38893 6.88881 4.00004 7.99992 4.00004C9.11103 4.00004 10.0555 4.38893 10.8333 5.16671C11.611 5.94448 11.9999 6.88893 11.9999 8.00004C11.9999 8.46671 11.9249 8.9056 11.7749 9.31671C11.6249 9.72782 11.4221 10.1056 11.1666 10.45L12.3499 11.6334C12.761 11.1334 13.0833 10.5778 13.3166 9.96671C13.5499 9.3556 13.6666 8.70004 13.6666 8.00004C13.6666 6.42226 13.1166 5.08337 12.0166 3.98337C10.9166 2.88337 9.5777 2.33337 7.99992 2.33337C6.42214 2.33337 5.08325 2.88337 3.98325 3.98337C2.88325 5.08337 2.33325 6.42226 2.33325 8.00004C2.33325 9.57782 2.88325 10.9167 3.98325 12.0167C5.08325 13.1167 6.42214 13.6667 7.99992 13.6667ZM7.99992 11C8.32214 11 8.63047 10.9528 8.92492 10.8584C9.21936 10.7639 9.48881 10.6278 9.73325 10.45L8.49992 9.23337C8.42214 9.26671 8.34158 9.29171 8.25825 9.30837C8.17492 9.32504 8.08881 9.33337 7.99992 9.33337C7.63325 9.33337 7.31936 9.20282 7.05825 8.94171C6.79714 8.6806 6.66658 8.36671 6.66658 8.00004C6.66658 7.63337 6.79714 7.31949 7.05825 7.05837C7.31936 6.79726 7.63325 6.66671 7.99992 6.66671C8.36658 6.66671 8.68047 6.79726 8.94159 7.05837C9.2027 7.31949 9.33325 7.63337 9.33325 8.00004C9.33325 8.08893 9.32214 8.17782 9.29992 8.26671C9.2777 8.3556 9.24992 8.44448 9.21658 8.53337L10.4499 9.73337C10.6277 9.48893 10.7638 9.21948 10.8583 8.92504C10.9527 8.6306 10.9999 8.32226 10.9999 8.00004C10.9999 7.16671 10.7083 6.45837 10.1249 5.87504C9.54158 5.29171 8.83325 5.00004 7.99992 5.00004C7.16658 5.00004 6.45825 5.29171 5.87492 5.87504C5.29159 6.45837 4.99992 7.16671 4.99992 8.00004C4.99992 8.83337 5.29159 9.54171 5.87492 10.125C6.45825 10.7084 7.16658 11 7.99992 11Z" fill="#651A39"/>
</g>
</svg>
