<svg width="16" height="16" viewBox="0 0 16 16" fill="none" xmlns="http://www.w3.org/2000/svg">
<path d="M8.00024 1.33325C8.92234 1.33329 9.78884 1.50868 10.5999 1.85864C10.8585 1.97026 11.1058 2.09562 11.343 2.23267L10.6243 2.95044C9.8386 2.53971 8.96429 2.3333 8.00024 2.33325C6.43358 2.33325 5.09701 2.88364 3.99146 3.98364C2.88607 5.08359 2.33325 6.42259 2.33325 8.00024C2.33333 9.56669 2.88608 10.9026 3.99146 12.0081C5.09701 13.1136 6.43358 13.6663 8.00024 13.6663C9.57788 13.6662 10.9169 13.1135 12.0168 12.0081C13.1166 10.9026 13.6662 9.56666 13.6663 8.00024C13.6663 6.87536 13.3856 5.87251 12.8264 4.99048L13.5354 4.28247C13.7673 4.62963 13.9701 5.00167 14.1418 5.39966C14.4918 6.21077 14.6663 7.07802 14.6663 8.00024C14.6662 8.9112 14.4918 9.77227 14.1418 10.5833C13.7919 11.3943 13.3169 12.1027 12.717 12.7083C12.117 13.3138 11.411 13.7918 10.5999 14.1418C9.78888 14.4918 8.92229 14.6662 8.00024 14.6663C7.08913 14.6663 6.22737 14.4918 5.41626 14.1418C4.60522 13.7919 3.89677 13.3138 3.29126 12.7083C2.68582 12.1028 2.20861 11.3942 1.85864 10.5833C1.50868 9.77224 1.33329 8.91123 1.33325 8.00024C1.33325 7.07802 1.50864 6.21077 1.85864 5.39966C2.20858 4.58882 2.68592 3.8833 3.29126 3.28345C3.89671 2.68355 4.60532 2.20863 5.41626 1.85864C6.22737 1.50864 7.08913 1.33325 8.00024 1.33325Z" fill="#1C1B1F"/>
<path d="M12.1064 2.80664L7.8638 7.04928L8.57091 7.75639L12.8136 3.51375L12.1064 2.80664Z" fill="#1C1B1F"/>
</svg>
