<svg width="16" height="16" viewBox="0 0 16 16" fill="none" xmlns="http://www.w3.org/2000/svg">
<path d="M2 12.167C2.00018 12.627 2.37303 12.9998 2.83301 13H12.167C12.627 12.9998 12.9998 12.627 13 12.167V11.5H14V12.167C13.9998 13.1793 13.1793 13.9998 12.167 14H2.83301C1.82074 13.9998 1.00018 13.1793 1 12.167V11.5H2V12.167ZM2.5 5C3.88071 5 5 6.11929 5 7.5C5 8.88071 3.88071 10 2.5 10C1.11929 10 0 8.88071 0 7.5C0 6.11929 1.11929 5 2.5 5ZM13.5 5C14.8807 5 16 6.11929 16 7.5C16 8.88071 14.8807 10 13.5 10C12.1193 10 11 8.88071 11 7.5C11 6.11929 12.1193 5 13.5 5ZM2.5 6C1.67157 6 1 6.67157 1 7.5C1 8.32843 1.67157 9 2.5 9C3.32843 9 4 8.32843 4 7.5C4 6.67157 3.32843 6 2.5 6ZM13.5 6C12.6716 6 12 6.67157 12 7.5C12 8.32843 12.6716 9 13.5 9C14.3284 9 15 8.32843 15 7.5C15 6.67157 14.3284 6 13.5 6ZM12.167 1C13.1793 1.00018 13.9998 1.82074 14 2.83301V3.5H13V2.83301C12.9998 2.37303 12.627 2.00018 12.167 2H2.83301C2.37303 2.00018 2.00018 2.37303 2 2.83301V3.5H1V2.83301C1.00018 1.82074 1.82074 1.00018 2.83301 1H12.167Z" fill="white" fill-opacity="0.8"/>
</svg>
