<svg width="18" height="18" viewBox="0 0 18 18" fill="none" xmlns="http://www.w3.org/2000/svg">
<g clip-path="url(#clip0_2231_67)">
<path d="M9 0.625C13.6254 0.625 17.375 4.37462 17.375 9C17.375 13.6254 13.6254 17.375 9 17.375C4.37462 17.375 0.625 13.6254 0.625 9C0.625 4.37462 4.37462 0.625 9 0.625ZM9 1.625C4.9269 1.625 1.625 4.9269 1.625 9C1.625 13.0731 4.9269 16.375 9 16.375C13.0731 16.375 16.375 13.0731 16.375 9C16.375 4.9269 13.0731 1.625 9 1.625ZM9 4.5C11.4853 4.5 13.5 6.51472 13.5 9C13.5 11.4853 11.4853 13.5 9 13.5C6.51472 13.5 4.5 11.4853 4.5 9C4.5 6.51472 6.51472 4.5 9 4.5Z" fill="#E62324"/>
</g>
<defs>
<clipPath id="clip0_2231_67">
<rect width="18" height="18" fill="white"/>
</clipPath>
</defs>
</svg>
