<svg width="16" height="16" viewBox="0 0 16 16" fill="none" xmlns="http://www.w3.org/2000/svg">
<g clip-path="url(#clip0_2484_6230)">
<path d="M7.99989 0.499878C12.142 0.499878 15.4998 3.85779 15.4999 7.99988C15.4999 12.142 12.142 15.4999 7.99989 15.4999C3.85781 15.4998 0.499893 12.142 0.499893 7.99988C0.499952 3.85783 3.85784 0.499937 7.99989 0.499878ZM7.99989 1.49988C4.41013 1.49994 1.49995 4.41011 1.49989 7.99988C1.49989 11.5897 4.41009 14.4998 7.99989 14.4999C11.5897 14.4999 14.4999 11.5897 14.4999 7.99988C14.4998 4.41008 11.5897 1.49988 7.99989 1.49988ZM7.99989 3.99988C10.209 3.99988 11.9998 5.79079 11.9999 7.99988C11.9999 10.209 10.209 11.9999 7.99989 11.9999C5.7908 11.9998 3.99989 10.209 3.99989 7.99988C3.99995 5.79082 5.79084 3.99994 7.99989 3.99988Z" fill="#26171D"/>
</g>
<defs>
<clipPath id="clip0_2484_6230">
<rect width="16" height="16" fill="white"/>
</clipPath>
</defs>
</svg>
