<svg width="16" height="16" viewBox="0 0 16 16" fill="none" xmlns="http://www.w3.org/2000/svg">
<g opacity="0.5">
<path d="M14.207 5.5L10.3535 9.35352L9.64648 8.64648L12.293 6H5.5C4.70435 6 3.94152 6.3163 3.37891 6.87891C2.8163 7.44152 2.5 8.20435 2.5 9C2.5 9.79565 2.8163 10.5585 3.37891 11.1211C3.94152 11.6837 4.70435 12 5.5 12H11V13H5.5C4.43913 13 3.42202 12.5783 2.67188 11.8281C1.92173 11.078 1.5 10.0609 1.5 9C1.5 7.93913 1.92173 6.92202 2.67188 6.17188C3.42202 5.42173 4.43913 5 5.5 5H12.293L9.64648 2.35352L10.3535 1.64648L14.207 5.5Z" fill="#26171D"/>
</g>
</svg>
