<svg width="16" height="16" viewBox="0 0 16 16" fill="none" xmlns="http://www.w3.org/2000/svg">
<path d="M12.1543 5.00391C13.7394 5.08421 15 6.39489 15 8C15.5523 8 16 8.44772 16 9V11C16 11.5523 15.5523 12 15 12L14.9961 12.1543C14.9184 13.6883 13.6883 14.9184 12.1543 14.9961L12 15H4C2.39489 15 1.08421 13.7394 1.00391 12.1543L1 12C0.447715 12 0 11.5523 0 11V9C0 8.44772 0.447715 8 1 8C1 6.34315 2.34315 5 4 5H7.5V3.93359C6.6378 3.71129 6 2.93162 6 2C6 0.895431 6.89543 0 8 0C9.10457 0 10 0.895431 10 2C10 2.93162 9.3622 3.71129 8.5 3.93359V5H12L12.1543 5.00391ZM4 6C2.89543 6 2 6.89543 2 8V12C2 13.1046 2.89543 14 4 14H12C13.1046 14 14 13.1046 14 12V8C14 6.89543 13.1046 6 12 6H4ZM6 8C6.55228 8 7 8.44772 7 9V11C7 11.5523 6.55228 12 6 12C5.44772 12 5 11.5523 5 11V9C5 8.44772 5.44772 8 6 8ZM10 8C10.5523 8 11 8.44772 11 9V11C11 11.5523 10.5523 12 10 12C9.44772 12 9 11.5523 9 11V9C9 8.44772 9.44772 8 10 8ZM8 1C7.44772 1 7 1.44772 7 2C7 2.55228 7.44772 3 8 3C8.55228 3 9 2.55228 9 2C9 1.44772 8.55228 1 8 1Z" fill="#390A1A"/>
</svg>
