<svg width="16" height="16" viewBox="0 0 16 16" fill="none" xmlns="http://www.w3.org/2000/svg">
<g clip-path="url(#clip0_2231_457)">
<path d="M3.5 0.5C5.15685 0.5 6.5 1.84315 6.5 3.5C6.5 4.10364 6.31948 4.66419 6.0127 5.13477L8.60645 7.0791L14.665 1.62793L15.335 2.37207L8.83203 8.22266L8.7002 8.40039L8.66504 8.37402L5.96973 10.7998C6.30318 11.2833 6.5 11.8683 6.5 12.5C6.5 14.1569 5.15685 15.5 3.5 15.5C1.84315 15.5 0.5 14.1569 0.5 12.5C0.5 10.8431 1.84315 9.5 3.5 9.5C4.16306 9.5 4.77391 9.71779 5.27051 10.082L7.84863 7.76172L5.33008 5.87305C4.82329 6.26446 4.18988 6.5 3.5 6.5C1.84315 6.5 0.5 5.15685 0.5 3.5C0.5 1.84315 1.84315 0.5 3.5 0.5ZM3.5 10.5C2.39543 10.5 1.5 11.3954 1.5 12.5C1.5 13.6046 2.39543 14.5 3.5 14.5C4.60457 14.5 5.5 13.6046 5.5 12.5C5.5 11.3954 4.60457 10.5 3.5 10.5ZM15.3535 13.6465L14.6465 14.3535L10.6465 10.3535L11.3535 9.64648L15.3535 13.6465ZM3.5 1.5C2.39543 1.5 1.5 2.39543 1.5 3.5C1.5 4.60457 2.39543 5.5 3.5 5.5C4.60457 5.5 5.5 4.60457 5.5 3.5C5.5 2.39543 4.60457 1.5 3.5 1.5Z" fill="#651A39"/>
</g>
<defs>
<clipPath id="clip0_2231_457">
<rect width="16" height="16" fill="white"/>
</clipPath>
</defs>
</svg>
