<svg width="16" height="16" viewBox="0 0 16 16" fill="none" xmlns="http://www.w3.org/2000/svg">
<g clip-path="url(#clip0_2231_1926)">
<path d="M1 14.5C1 14.7761 1.22386 15 1.5 15H4V16H1.5C0.671573 16 0 15.3284 0 14.5V12H1V14.5ZM16 14.5C16 15.3284 15.3284 16 14.5 16H12V15H14.5C14.7761 15 15 14.7761 15 14.5V12H16V14.5ZM10.2725 5.08301H12.0908C12.3319 5.08301 12.5629 5.18592 12.7334 5.36816C12.9039 5.55049 13 5.79781 13 6.05566V11.4023C13 11.6602 12.9039 11.9075 12.7334 12.0898C12.5629 12.2722 12.3319 12.375 12.0908 12.375H3.90918C3.66807 12.375 3.43709 12.2722 3.2666 12.0898C3.09614 11.9075 3 11.6602 3 11.4023V6.05566C3 5.79781 3.09611 5.55049 3.2666 5.36816C3.43708 5.18592 3.66813 5.08301 3.90918 5.08301H5.72754L6.63672 3.625H9.36328L10.2725 5.08301ZM8 6.75C6.96447 6.75 6.125 7.58947 6.125 8.625C6.125 9.66053 6.96447 10.5 8 10.5C9.03553 10.5 9.875 9.66053 9.875 8.625C9.875 7.58947 9.03553 6.75 8 6.75ZM4 1H1.5C1.22386 1 1 1.22386 1 1.5V4H0V1.5C0 0.671573 0.671573 0 1.5 0H4V1ZM14.5 0C15.3284 0 16 0.671573 16 1.5V4H15V1.5C15 1.22386 14.7761 1 14.5 1H12V0H14.5Z" fill="white"/>
</g>
<defs>
<clipPath id="clip0_2231_1926">
<rect width="16" height="16" fill="white"/>
</clipPath>
</defs>
</svg>
