<svg width="16" height="16" viewBox="0 0 16 16" fill="none" xmlns="http://www.w3.org/2000/svg">
<g clip-path="url(#clip0_2386_425)">
<path d="M7 0.5C10.5899 0.5 13.5 3.41015 13.5 7C13.5 8.6149 12.9094 10.0908 11.9346 11.2275L15.3535 14.6465L14.6465 15.3535L11.2275 11.9346C10.0908 12.9094 8.6149 13.5 7 13.5C3.41015 13.5 0.5 10.5899 0.5 7C0.5 3.41015 3.41015 0.5 7 0.5ZM7 1.5C3.96243 1.5 1.5 3.96243 1.5 7C1.5 10.0376 3.96243 12.5 7 12.5C10.0376 12.5 12.5 10.0376 12.5 7C12.5 3.96243 10.0376 1.5 7 1.5Z" fill="#26171D"/>
</g>
<defs>
<clipPath id="clip0_2386_425">
<rect width="16" height="16" fill="white"/>
</clipPath>
</defs>
</svg>
