<svg width="16" height="16" viewBox="0 0 16 16" fill="none" xmlns="http://www.w3.org/2000/svg">
<path d="M8 0C8.10418 5.34675e-08 8.20666 0.0278026 8.29688 0.0810547L14.6885 3.77637C14.7825 3.83106 14.8603 3.91041 14.915 4.00586C14.9697 4.10135 14.9994 4.20965 15 4.32031V11.6797C14.9994 11.7903 14.9697 11.8986 14.915 11.9941C14.8603 12.0896 14.7825 12.1689 14.6885 12.2236L8.29688 15.9189C8.20666 15.9722 8.10418 16 8 16L7.92285 15.9951C7.87151 15.9882 7.82129 15.9743 7.77344 15.9541L7.70312 15.9189L1.31152 12.2236C1.24093 12.1826 1.17941 12.1276 1.12988 12.0625L1.08496 11.9941C1.03025 11.8986 1.00064 11.7903 1 11.6797V4.32031C1.00064 4.20965 1.03025 4.10135 1.08496 4.00586C1.13965 3.91041 1.21748 3.83106 1.31152 3.77637L7.70312 0.0810547C7.79334 0.0278028 7.89582 0 8 0ZM2 4.5332V11.4658L8 14.9346L14 11.4658V4.5332L8 1.06445L2 4.5332ZM8 5.5C9.38071 5.5 10.5 6.61929 10.5 8C10.5 9.38071 9.38071 10.5 8 10.5C6.61929 10.5 5.5 9.38071 5.5 8C5.5 6.61929 6.61929 5.5 8 5.5ZM8 6.5C7.17157 6.5 6.5 7.17157 6.5 8C6.5 8.82843 7.17157 9.5 8 9.5C8.82843 9.5 9.5 8.82843 9.5 8C9.5 7.17157 8.82843 6.5 8 6.5Z" fill="#26171D"/>
</svg>
