<svg width="16" height="16" viewBox="0 0 16 16" fill="none" xmlns="http://www.w3.org/2000/svg">
<path d="M12.667 1C13.4032 1.00021 14 1.69668 14 2.55566V13.4443C14 14.3033 13.4032 14.9998 12.667 15H3.33301C2.59678 14.9998 2 14.3033 2 13.4443V2.55566C2 1.69668 2.59678 1.00021 3.33301 1H12.667ZM3.33301 2C3.29557 2.00009 3.22735 2.01552 3.14941 2.10645C3.06952 2.19976 3 2.35563 3 2.55566V13.4443C3 13.6444 3.06952 13.8002 3.14941 13.8936C3.22735 13.9845 3.29557 13.9999 3.33301 14H12.667C12.7044 13.9999 12.7726 13.9845 12.8506 13.8936C12.9305 13.8002 13 13.6444 13 13.4443V2.55566C13 2.35563 12.9305 2.19976 12.8506 2.10645C12.7726 2.01552 12.7044 2.00009 12.667 2H3.33301ZM9.47754 4.89746L7.47754 11.3975L6.52246 11.1025L8.52246 4.60254L9.47754 4.89746Z" fill="white"/>
</svg>
