<svg width="16" height="16" viewBox="0 0 16 16" fill="none" xmlns="http://www.w3.org/2000/svg">
<path d="M11.8916 10C11.9603 10.2409 12 10.5071 12 10.8018C11.9999 11.7726 11.6268 12.5934 10.9355 13.1621C10.2552 13.7217 9.31271 14 8.22754 14C7.1273 13.9999 6.24117 13.6892 5.59961 13.1211C4.95952 12.5542 4.61071 11.7734 4.50391 10.9219L5 10.8594L5.49609 10.7979C5.57894 11.4577 5.83905 11.9968 6.2627 12.3721C6.68507 12.7461 7.31825 12.9999 8.22754 13C9.15231 13 9.84666 12.7623 10.2998 12.3896C10.7416 12.0262 10.9999 11.4987 11 10.8018C11 10.4771 10.9327 10.2157 10.8223 10H11.8916ZM14 9H2V8H14V9ZM8.34863 2.5C9.25566 2.5 10.1047 2.72807 10.7559 3.24219C11.4172 3.76441 11.8253 4.54362 11.9053 5.53711L11.4062 5.57715L10.9082 5.61719C10.8479 4.86791 10.5543 4.35788 10.1357 4.02734C9.70692 3.68882 9.09705 3.5 8.34863 3.5C7.61423 3.50001 6.97668 3.71539 6.5332 4.07422C6.0991 4.42558 5.83008 4.92914 5.83008 5.57715C5.83016 6.1922 6.11467 6.59 6.46875 6.86914C6.52921 6.91679 6.5918 6.95978 6.6543 7H5.24316C4.9976 6.62664 4.83013 6.15811 4.83008 5.57715C4.83008 4.61809 5.24291 3.83219 5.9043 3.29688C6.55625 2.76938 7.42783 2.50001 8.34863 2.5Z" fill="#26171D"/>
</svg>
