<svg width="16" height="16" viewBox="0 0 16 16" fill="none" xmlns="http://www.w3.org/2000/svg">
<path d="M11.124 7.60938L11.249 8.09375C10.6358 8.25235 10.0885 8.60111 9.68555 9.08984C9.28267 9.57858 9.04462 10.1823 9.00586 10.8145C8.96718 11.4468 9.12933 12.076 9.46973 12.6104C9.61754 12.8423 9.79752 13.0492 10 13.2305V12H11V15H8V14H9.36035C9.07875 13.7526 8.82982 13.4674 8.62598 13.1475C8.17214 12.4351 7.95625 11.597 8.00781 10.7539C8.05937 9.91095 8.37599 9.10583 8.91309 8.4541C9.45032 7.8024 10.1804 7.33653 10.998 7.125L11.124 7.60938ZM16 8H14.6436C14.9234 8.24659 15.1712 8.53026 15.374 8.84863C15.8278 9.56103 16.0437 10.3991 15.9922 11.2422C15.9406 12.0851 15.624 12.8903 15.0869 13.542C14.5497 14.1937 13.8196 14.6595 13.002 14.8711L12.876 14.3867L12.751 13.9023C13.3642 13.7437 13.9115 13.395 14.3145 12.9062C14.7173 12.4175 14.9554 11.8138 14.9941 11.1816C15.0328 10.5493 14.8707 9.92005 14.5303 9.38574C14.3824 9.15361 14.2027 8.94599 14 8.76465V10H13V7H16V8ZM5 11H1V10H5V11ZM6 7H1V6H6V7ZM15 3H1V2H15V3Z" fill="#651A39"/>
</svg>
