<svg width="16" height="16" viewBox="0 0 16 16" fill="none" xmlns="http://www.w3.org/2000/svg">
<path d="M9.07812 12.4072H8.01855L7.18066 10.0146H3.03027L2.19238 12.4072H1.13379L4.37402 3.15039H5.83691L9.07812 12.4072ZM10.9229 1.71094C12.3793 2.30623 13.6043 3.38133 14.3984 4.75684C15.1925 6.13235 15.5106 7.73015 15.2979 9.28906L14.3076 9.1543C14.49 7.81796 14.2169 6.44286 13.5322 5.25684C12.8475 4.07088 11.7933 3.14703 10.5449 2.63672L10.7334 2.17383L10.9229 1.71094ZM3.37988 9.01465H6.83105L5.10547 4.08496L3.37988 9.01465ZM10.2607 4.52832C10.971 4.89582 11.5636 5.46449 11.9658 6.16113C12.3679 6.85765 12.5632 7.65449 12.5264 8.45312L12.0273 8.43066L11.5273 8.40625C11.5551 7.8007 11.4069 7.19356 11.0996 6.66113C10.7921 6.12853 10.3403 5.69574 9.80176 5.41699L10.0312 4.97363L10.2607 4.52832Z" fill="#26171D"/>
</svg>
