<svg width="16" height="16" viewBox="0 0 16 16" fill="none" xmlns="http://www.w3.org/2000/svg">
<path d="M15 12.2773C15 13.3035 14.048 13.9999 13.0557 14H2.94434C1.95204 13.9999 1 13.3035 1 12.2773V10.4443H2V12.2773C2 12.6012 2.34125 13 2.94434 13H13.0557C13.6588 13 14 12.6012 14 12.2773V10.1387H15V12.2773ZM10.8945 11.0527H9.93262L9.40332 9.64453H6.54883L6.01953 11.0527H5.05859L7.35156 4.94727H8.60059L10.8945 11.0527ZM1.50977 7.25C1.92398 7.25 2.25977 7.58579 2.25977 8C2.25977 8.41421 1.92398 8.75 1.50977 8.75H1.5C1.08579 8.75 0.75 8.41421 0.75 8C0.75 7.58579 1.08579 7.25 1.5 7.25H1.50977ZM14.5098 7.25C14.924 7.25 15.2598 7.58579 15.2598 8C15.2598 8.41421 14.924 8.75 14.5098 8.75H14.5C14.0858 8.75 13.75 8.41421 13.75 8C13.75 7.58579 14.0858 7.25 14.5 7.25H14.5098ZM6.92383 8.64453H9.02734L7.97559 5.84473L6.92383 8.64453ZM13.0557 2C14.048 2.00005 15 2.6965 15 3.72266V5.86133H14V3.72266C14 3.39884 13.6588 3.00005 13.0557 3H2.94434C2.34125 3.00005 2 3.39884 2 3.72266V5.86133H1V3.72266C1 2.6965 1.95204 2.00005 2.94434 2H13.0557Z" fill="#715661"/>
</svg>
