<svg width="16" height="16" viewBox="0 0 16 16" fill="none" xmlns="http://www.w3.org/2000/svg">
<path d="M5.32031 2.38379L3.38086 4H10.5C11.5609 4 12.578 4.42173 13.3281 5.17188C14.0783 5.92202 14.5 6.93913 14.5 8C14.5 9.06087 14.0783 10.078 13.3281 10.8281C12.578 11.5783 11.5609 12 10.5 12H5V11H10.5C11.2956 11 12.0585 10.6837 12.6211 10.1211C13.1837 9.55848 13.5 8.79565 13.5 8C13.5 7.20435 13.1837 6.44152 12.6211 5.87891C12.0585 5.3163 11.2956 5 10.5 5H3.38086L5.32031 6.61621L4.67969 7.38379L1.67969 4.88379L1.21875 4.5L1.67969 4.11621L4.67969 1.61621L5.32031 2.38379Z" fill="#26171D"/>
</svg>
