<svg width="16" height="16" viewBox="0 0 16 16" fill="none" xmlns="http://www.w3.org/2000/svg">
<path d="M2 13.167C2.00009 13.3744 2.08952 13.5823 2.2627 13.7422C2.43726 13.9032 2.68171 14 2.94434 14H13.0557C13.3183 14 13.5627 13.9032 13.7373 13.7422C13.9105 13.5823 13.9999 13.3744 14 13.167V10.5H15V13.167C14.9999 13.6665 14.7844 14.1365 14.416 14.4766C14.0489 14.8155 13.559 15 13.0557 15H2.94434C2.44102 15 1.95112 14.8155 1.58398 14.4766C1.21564 14.1365 1.00009 13.6665 1 13.167V10.5H2V13.167ZM12.3535 4.64648L11.6465 5.35352L8.5 2.20703V9H7.5V2.20703L4.35352 5.35352L3.64648 4.64648L8 0.292969L12.3535 4.64648Z" fill="white"/>
</svg>
