<svg width="16" height="16" viewBox="0 0 16 16" fill="none" xmlns="http://www.w3.org/2000/svg">
<path d="M14.2227 2C15.2042 2.00018 15.9998 2.59689 16 3.33301V12.667L15.9912 12.8027C15.9004 13.4751 15.1431 13.9998 14.2227 14H1.77734C0.856926 13.9998 0.0996269 13.4751 0.00878906 12.8027L0 12.667V3.33301C0.000234519 2.59689 0.795848 2.00018 1.77734 2H14.2227ZM1.77734 3C1.4823 3.00009 1.25367 3.09112 1.12109 3.19043C1.05654 3.23884 1.02437 3.28151 1.01074 3.30566C1.00417 3.31732 1.00183 3.325 1.00098 3.32812C1.00032 3.33058 1.00002 3.33187 1 3.33301V12.667C1.00002 12.6681 1.00032 12.6694 1.00098 12.6719C1.00183 12.675 1.00417 12.6827 1.01074 12.6943C1.02437 12.7185 1.05654 12.7612 1.12109 12.8096C1.25367 12.9089 1.4823 12.9999 1.77734 13H14.2227C14.5177 12.9999 14.7463 12.9089 14.8789 12.8096C14.9435 12.7612 14.9756 12.7185 14.9893 12.6943C14.9958 12.6827 14.9982 12.675 14.999 12.6719C14.9997 12.6694 15 12.6681 15 12.667V3.33301C15 3.33187 14.9997 3.33058 14.999 3.32812C14.9982 3.325 14.9958 3.31732 14.9893 3.30566C14.9756 3.28151 14.9435 3.23884 14.8789 3.19043C14.7463 3.09112 14.5177 3.00009 14.2227 3H1.77734ZM11 8L6 11V5L11 8Z" fill="#651A39"/>
</svg>
