<svg width="16" height="16" viewBox="0 0 16 16" fill="none" xmlns="http://www.w3.org/2000/svg">
<mask id="mask0_2231_127" style="mask-type:alpha" maskUnits="userSpaceOnUse" x="0" y="0" width="16" height="16">
<rect width="16" height="16" fill="#D9D9D9"/>
</mask>
<g mask="url(#mask0_2231_127)">
<path d="M10.0084 9.67496C10.5584 9.12496 10.8334 8.45551 10.8334 7.66663C10.8334 6.87774 10.5584 6.20829 10.0084 5.65829C9.45842 5.10829 8.78897 4.83329 8.00008 4.83329C7.21119 4.83329 6.54175 5.10829 5.99175 5.65829C5.44175 6.20829 5.16675 6.87774 5.16675 7.66663C5.16675 8.45551 5.44175 9.12496 5.99175 9.67496C6.54175 10.225 7.21119 10.5 8.00008 10.5C8.78897 10.5 9.45842 10.225 10.0084 9.67496ZM6.67508 8.99163L9.32508 6.34163C9.68619 6.70274 9.86675 7.1444 9.86675 7.66663C9.86675 8.18885 9.68619 8.63052 9.32508 8.99163C8.96397 9.35274 8.5223 9.53329 8.00008 9.53329C7.47786 9.53329 7.03619 9.35274 6.67508 8.99163ZM3.60008 11.2833C2.28897 10.3611 1.31119 9.15551 0.666748 7.66663C1.31119 6.17774 2.28897 4.97218 3.60008 4.04996C4.91119 3.12774 6.37786 2.66663 8.00008 2.66663C9.6223 2.66663 11.089 3.12774 12.4001 4.04996C13.7112 4.97218 14.689 6.17774 15.3334 7.66663C14.689 9.15551 13.7112 10.3611 12.4001 11.2833C11.089 12.2055 9.6223 12.6666 8.00008 12.6666C6.37786 12.6666 4.91119 12.2055 3.60008 11.2833ZM11.7084 10.575C12.8362 9.84718 13.6945 8.87774 14.2834 7.66663C13.6945 6.45551 12.8362 5.48607 11.7084 4.75829C10.5806 4.03051 9.34453 3.66663 8.00008 3.66663C6.65564 3.66663 5.41953 4.03051 4.29175 4.75829C3.16397 5.48607 2.30008 6.45551 1.70008 7.66663C2.30008 8.87774 3.16397 9.84718 4.29175 10.575C5.41953 11.3027 6.65564 11.6666 8.00008 11.6666C9.34453 11.6666 10.5806 11.3027 11.7084 10.575Z" fill="#1C1B1F"/>
</g>
</svg>
