<svg width="16" height="16" viewBox="0 0 16 16" fill="none" xmlns="http://www.w3.org/2000/svg">
<path d="M7 14.0869L6.1748 13.3799L2.98145 10.6426H0V5.35742H2.98145L6.1748 2.62012L7 1.91309V14.0869ZM13.0625 2.6709C14.3088 4.09441 15 6.012 15 8C15 9.988 14.3088 11.9056 13.0625 13.3291L12.3105 12.6709C13.3866 11.442 14 9.76252 14 8C14 6.23748 13.3866 4.55803 12.3105 3.3291L13.0625 2.6709ZM3.49219 6.23633L3.35156 6.35742H1V9.64258H3.35156L3.49219 9.76367L6 11.9121V4.08691L3.49219 6.23633ZM10.876 5.16699C11.5417 5.92731 11.9071 6.94583 11.9072 7.99609C11.9072 9.04649 11.5418 10.0658 10.876 10.8262L10.5 10.4961L10.124 10.167C10.6193 9.60119 10.9072 8.8209 10.9072 7.99609C10.9071 7.17149 10.6192 6.39188 10.124 5.82617L10.5 5.49609L10.876 5.16699Z" fill="#26171D"/>
</svg>
